<svg id="Layer_1" data-name="Layer 1" xmlns="http://www.w3.org/2000/svg" viewBox="0 0 52.14 52.14"><defs><style>.cls-1{fill:#fdfbf9;}</style></defs><path id="linkedin" class="cls-1" d="M46.35,0a5.79,5.79,0,0,1,5.79,5.79V46.35a5.79,5.79,0,0,1-5.79,5.79H5.79A5.79,5.79,0,0,1,0,46.35V5.79A5.79,5.79,0,0,1,5.79,0H46.35M44.9,44.9V29.55a9.44,9.44,0,0,0-9.44-9.45h0a8.39,8.39,0,0,0-6.72,3.77V20.66H20.66V44.9h8.08V30.62a4,4,0,1,1,8.08,0V44.9H44.9M11.24,16.11a4.88,4.88,0,1,0-4.9-4.87,4.88,4.88,0,0,0,4.9,4.87h0m4,28.8V20.66h-8V44.9Z"/></svg>