<svg id="Layer_1" data-name="Layer 1" xmlns="http://www.w3.org/2000/svg" viewBox="0 0 451.52 89.73"><defs><style>.cls-1{isolation:isolate;}.cls-2{fill:none;stroke:#fff;}.cls-3{fill:#fff;}</style></defs><g id="Kankovsky" class="cls-1"><g class="cls-1"><path class="cls-2" d="M52.93,62.41a7.45,7.45,0,0,1-6.66-3.66L31.69,37a4.15,4.15,0,0,0-3.32-2.07,8,8,0,0,0-4.91,2.19V54.81A7.72,7.72,0,0,0,24,57.35a5.33,5.33,0,0,0,5.22,4v1h-26v-1a5.39,5.39,0,0,0,5.23-4,8.59,8.59,0,0,0,.5-2.54V10.92a8.83,8.83,0,0,0-.5-2.53,5.41,5.41,0,0,0-5.23-4V3.32h26V4.37a5.35,5.35,0,0,0-5.22,4,7.93,7.93,0,0,0-.55,2.53V35.4L47.94,10.92a5.9,5.9,0,0,0,1.68-2.75,11.13,11.13,0,0,0,.19-1.54,3.42,3.42,0,0,0-.74-2.26V3.32H61.7V4.37A17.63,17.63,0,0,0,55,6.81a27.88,27.88,0,0,0-5.5,4.11L34.18,26.24a20,20,0,0,1,6.73.94,10,10,0,0,1,4.73,4.21L62.05,55.94a17,17,0,0,0,3.2,3.71,6,6,0,0,0,4,1.71v1.09Z"/><path class="cls-2" d="M78.31,63.47A8.28,8.28,0,0,1,74,62.39a6,6,0,0,1-2.59-2.78,8.07,8.07,0,0,1-.76-3.28c0-1.87,1.13-4,3.41-6.37s8.15-5.78,17.63-10.19l0-6.75a34.15,34.15,0,0,0-.7-8.1,3.55,3.55,0,0,0-3.86-2.81,3.44,3.44,0,0,0-2.82,1.15c-.64.77-1,2.2-1,4.31,0,.54,0,1.07,0,1.58s0,1,0,1.42q0,4.09-1.81,5.4a8.45,8.45,0,0,1-5,1.3A6,6,0,0,1,73,36.1a4.53,4.53,0,0,1-1.55-3.86c0-1.22.72-2.76,2.18-4.62a16.92,16.92,0,0,1,6.64-4.75,22,22,0,0,1,8.91-2q7.41,0,12.08,3.49T106,36.14l.08,17.11c.08,3.1,1.43,4.64,4,4.64a7.88,7.88,0,0,0,4-1.17l.47.82-12,5.11a8.3,8.3,0,0,1-3.43.74,6.8,6.8,0,0,1-3.88-1.29,9.31,9.31,0,0,1-3-3.43A25.64,25.64,0,0,1,78.31,63.47ZM90.78,56.1l1,0,0-15.05q-7.83,4.65-7.83,8.81A5.56,5.56,0,0,0,86,54.46,7.57,7.57,0,0,0,90.78,56.1Z"/><path class="cls-2" d="M151,62.37a2.55,2.55,0,0,1-1.85-.72,2.37,2.37,0,0,1-.76-1.81V36q-.07-7.53-1.46-9.42a3.77,3.77,0,0,0-2.9-1.89,3.81,3.81,0,0,0-1.84.47q-8.07,4.52-8.07,14.19V52.86a19.81,19.81,0,0,0,.88,5.4,8.64,8.64,0,0,0,1.78,3.49v.62H122.43a2.55,2.55,0,0,1-1.85-.72,2.37,2.37,0,0,1-.76-1.81V35.25a8.79,8.79,0,0,0-.57-2.75,7,7,0,0,0-1.93-2.93,5.62,5.62,0,0,0-3.66-1.38l18.17-7.29a2.36,2.36,0,0,1,2.29,2.53V31Q138.73,20.9,150,20.9a14.39,14.39,0,0,1,8.38,3.16q4.36,3.15,4.37,11.58v17a18.61,18.61,0,0,0,.81,5.46,9.16,9.16,0,0,0,1.8,3.62v.62Z"/><path class="cls-2" d="M209.55,63.51a17.22,17.22,0,0,1-4.68-.65,5.46,5.46,0,0,1-3.2-2l-7.48-11.73q-2-3.31-3.12-3.31c-.86,0-2.1.84-3.74,2.53v1.44a61.39,61.39,0,0,0,.37,6.26,9.76,9.76,0,0,0,2.24,5.67v.62H175.68a2.64,2.64,0,0,1-1.86-.7,2.33,2.33,0,0,1-.76-1.79V14.78a8.73,8.73,0,0,0-.56-2.71,7.13,7.13,0,0,0-1.91-2.92,5.46,5.46,0,0,0-3.68-1.35L185,.51a2.37,2.37,0,0,1,2.3,2.54V46.74l7.17-6.93a8.82,8.82,0,0,0,3.36-7.33,10,10,0,0,0-2.23-6.24l15.24-5.34a5,5,0,0,1,1.1,3.2c0,1.87-1,3.6-2.89,5.18L196.14,39.61a21.88,21.88,0,0,1,7.17,1,10.32,10.32,0,0,1,5,4.51l6.86,10.72a4.13,4.13,0,0,0,3.59,2.1,6.36,6.36,0,0,0,3.31-1.13l.47.78-8.77,5.11A9,9,0,0,1,209.55,63.51Z"/><path class="cls-2" d="M228.86,57.27a20.14,20.14,0,0,1-6.49-15.05,20.11,20.11,0,0,1,6.49-15,22.85,22.85,0,0,1,31.38,0,20.08,20.08,0,0,1,6.49,15,20.1,20.1,0,0,1-6.49,15.05,22.85,22.85,0,0,1-31.38,0Zm22.84,1.91q1.16-2,1.27-7a48,48,0,0,0-2.3-13.72q-2.56-7.9-5.57-11.6c-2-2.45-3.71-3.68-5.11-3.68-1,0-1.87.68-2.65,2s-1.19,3.69-1.25,7a47.92,47.92,0,0,0,2.3,13.69Q241,53.84,244,57.52t5.1,3.69C250.06,61.21,250.94,60.53,251.7,59.18Z"/><path class="cls-2" d="M291.05,63.35a1.43,1.43,0,0,1-.83-.43,2.54,2.54,0,0,1-.61-.82L277.06,35.91q-3.78-7.75-11.11-7.76l18.13-7.25a2.11,2.11,0,0,1,1.4.33q.34.33,14.77,30.43,3.56-6.55,3.55-10.76,0-6.09-2.42-9.34a16.75,16.75,0,0,0-5.69-5l15.24-5.69a10.18,10.18,0,0,1,2.69,7.37,24.29,24.29,0,0,1-5.41,15L292.85,63.31Z"/><path class="cls-2" d="M324.81,62.55q-5-1-5-2.55,0-.12,2.14-10.22l.78-.11a48.72,48.72,0,0,0,8.27,9q3.9,3.12,6.82,3.12a5.69,5.69,0,0,0,3.74-1.15A4.39,4.39,0,0,0,343,57c0-1.76-.94-3.28-2.82-4.54A38.86,38.86,0,0,0,333.5,49a41.57,41.57,0,0,1-10-5.91q-4.59-3.65-4.7-10.47,0-4.79,4.58-8.2T335.69,21q13.44,0,13.64,4.71L349,34.62l-1.06,0q-1.4-4-6.25-7.95t-9.26-3.9a6.24,6.24,0,0,0-3.51.84,2.79,2.79,0,0,0-1.24,2.48,4.69,4.69,0,0,0,2.53,4,40.27,40.27,0,0,0,6.59,3.28,50.47,50.47,0,0,1,11,5.94Q353,43,353,50.1q0,6.12-6.27,9.8A24.92,24.92,0,0,1,334,63.58,45.51,45.51,0,0,1,324.81,62.55Z"/><path class="cls-2" d="M397.16,63.51a17.22,17.22,0,0,1-4.68-.65,5.43,5.43,0,0,1-3.2-2L381.8,49.16q-2-3.31-3.12-3.31-1.29,0-3.74,2.53v1.44a61.39,61.39,0,0,0,.37,6.26,9.63,9.63,0,0,0,2.24,5.67v.62H363.28a2.62,2.62,0,0,1-1.85-.7,2.3,2.3,0,0,1-.76-1.79V14.78a9,9,0,0,0-.56-2.71,7.24,7.24,0,0,0-1.91-2.92,5.47,5.47,0,0,0-3.69-1.35L372.64.51a2.37,2.37,0,0,1,2.3,2.54V46.74l7.17-6.93a8.84,8.84,0,0,0,3.35-7.33,10,10,0,0,0-2.22-6.24l15.24-5.34a5,5,0,0,1,1.09,3.2q0,2.8-2.88,5.18L383.75,39.61a21.88,21.88,0,0,1,7.17,1,10.32,10.32,0,0,1,5,4.51l6.86,10.72a4.11,4.11,0,0,0,3.58,2.1,6.36,6.36,0,0,0,3.32-1.13l.46.78-8.77,5.11A9,9,0,0,1,397.16,63.51Z"/><path class="cls-2" d="M436.45,55.44l-19.73,28.1a9.05,9.05,0,0,1-2.08,2.11,5.83,5.83,0,0,1-3.45.89,7.47,7.47,0,0,1-5-1.67l-8.3-7,14-8.46q2.61,2.39,4.91,2.38,5.68,0,8.38-3.86l3.2-4.37a1.64,1.64,0,0,1-.78-.44,2.71,2.71,0,0,1-.59-.8L414.46,36.1q-3.78-7.76-11.11-7.75l18.13-7.25a2.11,2.11,0,0,1,1.4.33q.36.33,14.77,30.42,3.56-6.56,3.55-10.76,0-6.08-2.41-9.33a16.77,16.77,0,0,0-5.7-5l15.24-5.69A10.16,10.16,0,0,1,451,28.46a24.29,24.29,0,0,1-5.41,15Z"/></g></g><g id="Kankovsky-2" class="cls-1"><g class="cls-1"><path class="cls-3" d="M49.74,65.61a7.45,7.45,0,0,1-6.67-3.67L28.49,40.19a4.13,4.13,0,0,0-3.31-2.06,8,8,0,0,0-4.91,2.18V58a7.88,7.88,0,0,0,.54,2.53,5.34,5.34,0,0,0,5.23,4v1.06H0V64.55a5.37,5.37,0,0,0,5.22-4A8.28,8.28,0,0,0,5.73,58V14.12a8.62,8.62,0,0,0-.51-2.54A5.37,5.37,0,0,0,0,7.57V6.51H26V7.57a5.34,5.34,0,0,0-5.23,4,8.2,8.2,0,0,0-.54,2.54V38.59L44.75,14.12a6,6,0,0,0,1.67-2.75,11.92,11.92,0,0,0,.2-1.54,3.43,3.43,0,0,0-.74-2.26V6.51H58.51V7.57A17.48,17.48,0,0,0,51.8,10a27.42,27.42,0,0,0-5.49,4.12L31,29.43a20.25,20.25,0,0,1,6.72.94,10,10,0,0,1,4.74,4.21L58.86,59.14a16.88,16.88,0,0,0,3.19,3.7,6,6,0,0,0,4,1.71v1.1Z"/><path class="cls-3" d="M75.11,66.66a8.37,8.37,0,0,1-4.28-1.07,6.11,6.11,0,0,1-2.6-2.79,8.16,8.16,0,0,1-.76-3.27q0-2.81,3.41-6.38T88.52,43l0-6.74a34.25,34.25,0,0,0-.7-8.11A3.56,3.56,0,0,0,84,25.3a3.49,3.49,0,0,0-2.83,1.15c-.63.77-1,2.2-1,4.31,0,.54,0,1.07,0,1.58s0,1,0,1.42q0,4.1-1.82,5.4a8.39,8.39,0,0,1-5,1.31,5.94,5.94,0,0,1-3.67-1.17,4.52,4.52,0,0,1-1.56-3.86q0-1.83,2.19-4.62a16.83,16.83,0,0,1,6.64-4.76,22,22,0,0,1,8.91-2q7.4,0,12.08,3.49t4.72,11.75l.08,17.12q.1,4.63,4,4.64a7.81,7.81,0,0,0,4-1.17l.47.81-12,5.11a8.34,8.34,0,0,1-3.43.74,6.8,6.8,0,0,1-3.88-1.29,9.23,9.23,0,0,1-3-3.43Q82,66.59,75.11,66.66Zm12.48-7.37,1,0,0-15Q80.69,48.85,80.69,53a5.57,5.57,0,0,0,2.08,4.64A7.59,7.59,0,0,0,87.59,59.29Z"/><path class="cls-3" d="M147.81,65.57a2.57,2.57,0,0,1-1.85-.72A2.39,2.39,0,0,1,145.2,63V39.18c0-5-.54-8.15-1.46-9.41A3.36,3.36,0,0,0,139,28.34q-8.07,4.53-8.07,14.19V56.06a19.56,19.56,0,0,0,.88,5.4,8.8,8.8,0,0,0,1.77,3.48v.63H119.24a2.57,2.57,0,0,1-1.85-.72,2.39,2.39,0,0,1-.76-1.82V38.44a8.84,8.84,0,0,0-.57-2.75,7.08,7.08,0,0,0-1.93-2.92,5.59,5.59,0,0,0-3.66-1.39l18.16-7.29a2.37,2.37,0,0,1,2.3,2.54v7.52q4.6-10,15.83-10.06a14.48,14.48,0,0,1,8.38,3.16q4.37,3.16,4.36,11.58v17a18.62,18.62,0,0,0,.82,5.46,9.1,9.1,0,0,0,1.79,3.62v.63Z"/><path class="cls-3" d="M206.36,66.7a17.22,17.22,0,0,1-4.68-.65,5.42,5.42,0,0,1-3.2-2L191,52.35c-1.33-2.2-2.37-3.31-3.12-3.31s-2.11.85-3.74,2.53V53a61.37,61.37,0,0,0,.37,6.25,9.57,9.57,0,0,0,2.24,5.67v.63H172.48a2.66,2.66,0,0,1-1.85-.7,2.34,2.34,0,0,1-.76-1.8V18a9,9,0,0,0-.56-2.71,7.3,7.3,0,0,0-1.91-2.92A5.47,5.47,0,0,0,163.71,11l18.13-7.29a2.36,2.36,0,0,1,2.3,2.53v43.7L191.31,43a8.84,8.84,0,0,0,3.35-7.33,10.06,10.06,0,0,0-2.22-6.24l15.24-5.34a5,5,0,0,1,1.09,3.2q0,2.81-2.88,5.18L193,42.8a21.86,21.86,0,0,1,7.17,1,10.24,10.24,0,0,1,5,4.5L212,59a4.11,4.11,0,0,0,3.58,2.1A6.28,6.28,0,0,0,218.91,60l.46.78-8.77,5.11A8.83,8.83,0,0,1,206.36,66.7Z"/><path class="cls-3" d="M225.67,60.46a20.09,20.09,0,0,1-6.49-15,20.1,20.1,0,0,1,6.49-15,22.85,22.85,0,0,1,31.38,0,20.14,20.14,0,0,1,6.49,15.05,20.13,20.13,0,0,1-6.49,15,22.85,22.85,0,0,1-31.38,0Zm22.84,1.91q1.16-2,1.27-7a48,48,0,0,0-2.3-13.72c-1.72-5.27-3.57-9.14-5.58-11.59s-3.7-3.69-5.1-3.69c-1,0-1.87.68-2.65,2s-1.2,3.69-1.25,7a47.91,47.91,0,0,0,2.3,13.68q2.58,7.91,5.57,11.59c2,2.46,3.71,3.69,5.11,3.69C246.87,64.4,247.74,63.72,248.51,62.37Z"/><path class="cls-3" d="M287.86,66.54a1.39,1.39,0,0,1-.84-.43,2.65,2.65,0,0,1-.6-.82L273.87,39.1q-3.78-7.76-11.11-7.76l18.12-7.25a2.1,2.1,0,0,1,1.41.34q.34.33,14.77,30.42,3.54-6.56,3.55-10.76c0-4.05-.81-7.17-2.42-9.34a17,17,0,0,0-5.69-5l15.24-5.69a10.22,10.22,0,0,1,2.69,7.37,24.3,24.3,0,0,1-5.42,15L289.65,66.5Z"/><path class="cls-3" d="M321.62,65.74q-5-1-5-2.55,0-.12,2.14-10.21l.78-.12a48.73,48.73,0,0,0,8.26,9q3.9,3.12,6.83,3.12a5.7,5.7,0,0,0,3.74-1.15,4.4,4.4,0,0,0,1.4-3.6q0-2.65-2.82-4.54a38.86,38.86,0,0,0-6.65-3.49,41.82,41.82,0,0,1-10-5.91q-4.57-3.65-4.69-10.46,0-4.8,4.58-8.21t12.33-3.41q13.45,0,13.64,4.72l-.31,8.88-1.05,0q-1.41-4.06-6.26-8t-9.25-3.89a6.32,6.32,0,0,0-3.51.83,2.81,2.81,0,0,0-1.25,2.48,4.73,4.73,0,0,0,2.54,4,39.39,39.39,0,0,0,6.58,3.27,50.53,50.53,0,0,1,11,5.94c3.49,2.49,5.24,6.1,5.24,10.86q0,6.12-6.28,9.8a24.87,24.87,0,0,1-12.74,3.69A45.49,45.49,0,0,1,321.62,65.74Z"/><path class="cls-3" d="M394,66.7a17.33,17.33,0,0,1-4.68-.65,5.42,5.42,0,0,1-3.19-2L378.6,52.35c-1.32-2.2-2.36-3.31-3.11-3.31s-2.11.85-3.75,2.53V53c0,1.76.13,3.85.37,6.25a9.64,9.64,0,0,0,2.25,5.67v.63H360.09a2.64,2.64,0,0,1-1.85-.7,2.34,2.34,0,0,1-.76-1.8V18a8.8,8.8,0,0,0-.57-2.71A7.1,7.1,0,0,0,355,12.34,5.42,5.42,0,0,0,351.32,11l18.12-7.29a2.35,2.35,0,0,1,2.3,2.53v43.7L378.92,43a8.84,8.84,0,0,0,3.35-7.33,10.06,10.06,0,0,0-2.22-6.24l15.24-5.34a5,5,0,0,1,1.09,3.2q0,2.81-2.89,5.18L380.55,42.8a22,22,0,0,1,7.18,1,10.23,10.23,0,0,1,5,4.5L399.61,59a4.13,4.13,0,0,0,3.59,2.1A6.24,6.24,0,0,0,406.51,60l.47.78-8.77,5.11A8.87,8.87,0,0,1,394,66.7Z"/><path class="cls-3" d="M433.25,58.63l-19.72,28.1a9.1,9.1,0,0,1-2.09,2.11,5.74,5.74,0,0,1-3.45.89,7.41,7.41,0,0,1-5-1.67l-8.31-7,14-8.46c1.74,1.59,3.37,2.38,4.91,2.38q5.68,0,8.38-3.86l3.19-4.36a1.66,1.66,0,0,1-.78-.45,2.55,2.55,0,0,1-.58-.8L411.27,39.3q-3.78-7.77-11.11-7.76l18.13-7.25a2.13,2.13,0,0,1,1.4.33Q420,25,434.46,55,438,48.5,438,44.28q0-6.08-2.42-9.33a16.74,16.74,0,0,0-5.69-5l15.24-5.69a10.22,10.22,0,0,1,2.69,7.37,24.27,24.27,0,0,1-5.42,15Z"/></g></g></svg>