<svg id="Layer_1" data-name="Layer 1" xmlns="http://www.w3.org/2000/svg" viewBox="0 0 42.13 42.13"><defs><style>.cls-1{fill:#fbb900;}</style></defs><path class="cls-1" d="M16.33,20l.1.11v6H14.17v-6l.08-.1Z"/><path class="cls-1" d="M27.65,17.77h-2l-.13.13v8.25H27.8V17.9Z"/><rect class="cls-1" x="14.01" y="16.34" width="2.55" height="2.55" transform="translate(-7.98 15.96) rotate(-45)"/><path class="cls-1" d="M24.8,26.15,22.3,22.6l2.36-2.34h-2.4L20,22.5V17.77l-.17-.14H18.1l-.14.14v8.38H20v-3l2.32,3Z"/><path class="cls-1" d="M11.46,22.44c-.78-.26-1.65-.31-2-.47-.12-.06-.26-.14-.26-.31,0-.38.37-.46.69-.46a.73.73,0,0,1,.51.18.57.57,0,0,1,.26.45h2l.12-.13c-.12-1.44-1.65-1.79-2.93-1.79s-2.85.39-2.85,1.92c0,1,.71,1.59,2.46,1.89,1.08.18,1.26.29,1.26.63s-.46.47-.77.47a.79.79,0,0,1-.61-.18A.75.75,0,0,1,9,24.11H6.92l-.13.12c.13,1.47,1.63,2,3,2s3.07-.45,3.07-2.14C12.91,23.13,12.23,22.68,11.46,22.44Z"/><path class="cls-1" d="M35.31,24.78v-2.5c0-1.19,0-2.39-2.89-2.39-1.45,0-3.08.29-3.14,2h2.16c0-.26.17-.63.88-.63.37,0,.77.16.77.57s-.33.49-.63.55c-1.18.22-3.44.14-3.44,2.07,0,1.29,1,1.86,2.16,1.86a2.42,2.42,0,0,0,2-.74h0c0,.2,0,.39,0,.58h2l.14-.15S35.31,24.92,35.31,24.78ZM33.09,24a.92.92,0,0,1-.91,1h-.07a.67.67,0,0,1-.73-.57c0-.4.26-.55.8-.65a3.68,3.68,0,0,0,.91-.28Z"/></svg>