<svg id="Layer_1" data-name="Layer 1" xmlns="http://www.w3.org/2000/svg" viewBox="0 0 632.46 263.26"><defs><style>.cls-1{opacity:0.1;}.cls-2{isolation:isolate;}.cls-3{fill:#fff;}.cls-4{fill:none;stroke:#fff;}</style></defs><g id="Group_12" data-name="Group 12" class="cls-1"><g id="designer" class="cls-2"><g class="cls-2"><path class="cls-3" d="M226.76,114.53a14.69,14.69,0,0,1-7.69,2.11,16.87,16.87,0,0,1-9-2.51,15,15,0,0,1-5.89-7,20.81,20.81,0,0,1-1.63-8,25.34,25.34,0,0,1,.83-6.34,18.93,18.93,0,0,1,8.28-11.54,16.18,16.18,0,0,1,8.57-2.5,18.34,18.34,0,0,1,6.58,1.11V73.34a7.43,7.43,0,0,0-.52-2.48,6.32,6.32,0,0,0-1.71-2.55,4.8,4.8,0,0,0-3.24-1.17l16.15-6.52a2.11,2.11,0,0,1,2.05,2.25v44.38a3.7,3.7,0,0,0,.66,2,1.79,1.79,0,0,0,1.59.94,10.26,10.26,0,0,0,2.95-.56l.27.56-16.15,6.48C227.56,116.64,226.88,115.94,226.76,114.53Zm0-1.53V81.18a14.22,14.22,0,0,0-5.37-1.08q-5.31,0-6.31,4.89a24.3,24.3,0,0,0-.48,4.92,38.66,38.66,0,0,0,1.59,10.33q3.75,12.93,9.33,12.93A4.41,4.41,0,0,0,226.76,113Z"/><path class="cls-3" d="M266.63,116.64A18.94,18.94,0,0,1,253.22,84.3a18.25,18.25,0,0,1,13.41-5.55q8.33,0,11.65,5a9.4,9.4,0,0,1,1.84,5.1,5.59,5.59,0,0,1-1.18,3.4l-18.37,4.92q3.63,8.39,8.28,11.14c3.1,1.84,5.51,2.76,7.25,2.76a9.24,9.24,0,0,0,4.68-1.35.22.22,0,0,1,.17.21.79.79,0,0,1-.17.38A18.3,18.3,0,0,1,266.63,116.64Zm-6.45-20.45,6.42-1.74c1.38-1.11,2.08-3.14,2.08-6.1a15.33,15.33,0,0,0-1-5.32,3.78,3.78,0,0,0-3.75-2.79q-5.82,0-5.82,6.34A25.12,25.12,0,0,0,260.18,96.19Z"/><path class="cls-3" d="M290.52,115.79q-4.44-.92-4.44-2.27,0-.1,1.91-9.08l.69-.11a43.42,43.42,0,0,0,7.35,8q3.47,2.77,6.07,2.78a5.08,5.08,0,0,0,3.33-1,3.9,3.9,0,0,0,1.24-3.2,4.81,4.81,0,0,0-2.51-4,34.62,34.62,0,0,0-5.91-3.1,37.4,37.4,0,0,1-8.93-5.26q-4.06-3.24-4.18-9.31,0-4.26,4.08-7.29t11-3q12,0,12.13,4.2l-.27,7.9-.94,0c-.83-2.41-2.69-4.76-5.56-7.08s-5.63-3.46-8.24-3.46a5.62,5.62,0,0,0-3.12.74,2.49,2.49,0,0,0-1.11,2.21,4.18,4.18,0,0,0,2.26,3.53,35,35,0,0,0,5.86,2.91A45,45,0,0,1,311,95.06q4.65,3.31,4.66,9.66,0,5.43-5.58,8.71a22.12,22.12,0,0,1-11.34,3.28A40.72,40.72,0,0,1,290.52,115.79Z"/><path class="cls-3" d="M338.81,115.64h-12.9a2.3,2.3,0,0,1-1.64-.65,2.11,2.11,0,0,1-.68-1.61V91.51a8,8,0,0,0-.5-2.45,6.34,6.34,0,0,0-1.72-2.6,5,5,0,0,0-3.26-1.23l16.16-6.48c1.29,0,2,.75,2,2.25v25.86a13.87,13.87,0,0,0,2.5,8.12Zm-9.15-41.81A8.64,8.64,0,0,1,324,71.94a5.84,5.84,0,0,1-2.28-4.67,5.94,5.94,0,0,1,2.58-4.75,9.55,9.55,0,0,1,5.94-1.9,8.62,8.62,0,0,1,5.72,1.9,5.92,5.92,0,0,1,2.29,4.72,5.86,5.86,0,0,1-2.6,4.68A9.63,9.63,0,0,1,329.66,73.83Z"/><path class="cls-3" d="M348.05,134c-2.67-2.12-4-4.49-4-7.13A9.57,9.57,0,0,1,347,120a22.15,22.15,0,0,1,7-4.79h-9.15l-.45-.83,17.26-8.66a19.71,19.71,0,0,1-12.51-3.94q-5.07-3.93-5.06-9.51c0-3.73,1.68-6.9,5.06-9.54a19.24,19.24,0,0,1,12.2-4,21.64,21.64,0,0,1,4.44.45,60.53,60.53,0,0,1,5.65-4.32,11,11,0,0,1,6-2.34c3.9.07,5.86,1.48,5.86,4.23a4.07,4.07,0,0,1-.14,1,3.75,3.75,0,0,1-1.58,2.46,3.85,3.85,0,0,1-1.79.63,4,4,0,0,1-2.21-.8,10.33,10.33,0,0,0-5.79-1.84,7.32,7.32,0,0,0-3.44.66,12.29,12.29,0,0,0-1.07.66q11.34,3.92,11.34,12.66a11.35,11.35,0,0,1-4.11,8.71,18.92,18.92,0,0,1-10.42,4.56l-5.2,2.64h10.09q7.8,0,11.07,2.49a8,8,0,0,1,3.28,6.76,13.32,13.32,0,0,1-1.32,5.48,26,26,0,0,1-7.8,9.85q-5.75,4.4-14.28,4.4Q352.06,137.13,348.05,134Zm25.52-2.45a5.52,5.52,0,0,0,1.61-3.26,7.8,7.8,0,0,0-.24-1.87q-1.08-4.08-5.55-7.55-4.75-3.64-12.31-3.65-3.91.52-3.92,2.78,0,3.74,6.28,9.91,5.65,5.55,10.64,5.55A4.61,4.61,0,0,0,373.57,131.51Zm-6.73-29.46a7.68,7.68,0,0,0,.71-3.54,23.51,23.51,0,0,0-2.22-9.29,19.35,19.35,0,0,0-4.12-6.35q-2.06-1.8-3.33-1.8a2.25,2.25,0,0,0-2.1,1.35,7.59,7.59,0,0,0-.71,3.5,23.92,23.92,0,0,0,2.22,9.33,19.34,19.34,0,0,0,4.11,6.34c1.35,1.21,2.46,1.81,3.34,1.81A2.25,2.25,0,0,0,366.84,102.05Z"/><path class="cls-3" d="M418.79,115.64a2.3,2.3,0,0,1-1.65-.65,2.11,2.11,0,0,1-.67-1.61V92.17c-.05-4.46-.48-7.26-1.3-8.38a3.35,3.35,0,0,0-2.59-1.68,3.29,3.29,0,0,0-1.62.42q-7.18,4-7.18,12.62v12a16.87,16.87,0,0,0,.78,4.8,7.78,7.78,0,0,0,1.58,3.1v.56H393.38a2.3,2.3,0,0,1-1.65-.65,2.11,2.11,0,0,1-.67-1.61V91.51a7.8,7.8,0,0,0-.51-2.45,6.22,6.22,0,0,0-1.71-2.6,5,5,0,0,0-3.26-1.23l16.15-6.48a2.1,2.1,0,0,1,2,2.25v6.69q4.1-8.94,14.07-8.94a12.81,12.81,0,0,1,7.46,2.81q3.88,2.81,3.88,10.29V107a16.21,16.21,0,0,0,.73,4.86,8.13,8.13,0,0,0,1.59,3.22v.56Z"/><path class="cls-3" d="M454,116.64A18.94,18.94,0,0,1,440.56,84.3,18.28,18.28,0,0,1,454,78.75q8.32,0,11.65,5a9.46,9.46,0,0,1,1.83,5.1,5.58,5.58,0,0,1-1.17,3.4l-18.38,4.92q3.64,8.39,8.29,11.14c3.09,1.84,5.51,2.76,7.24,2.76a9.24,9.24,0,0,0,4.68-1.35q.18.06.18.21a.74.74,0,0,1-.18.38A18.28,18.28,0,0,1,454,116.64Zm-6.45-20.45,6.41-1.74q2.08-1.67,2.08-6.1A15.11,15.11,0,0,0,455,83a3.77,3.77,0,0,0-3.74-2.79q-5.82,0-5.82,6.34A25.12,25.12,0,0,0,447.53,96.19Z"/><path class="cls-3" d="M491.21,115.64H478.52a2.3,2.3,0,0,1-1.64-.65,2.11,2.11,0,0,1-.68-1.61V91.58a7.94,7.94,0,0,0-.5-2.41,6.33,6.33,0,0,0-1.7-2.6,4.87,4.87,0,0,0-3.28-1.2l16.12-6.48c1.3,0,2,.75,2.05,2.25v3.54q4-5.76,8.25-5.76c2.68,0,4.58.62,5.7,1.84a7.08,7.08,0,0,1,1.68,5c0,2.66-.65,4.6-2,5.84a6.25,6.25,0,0,1-4.37,1.85,5.5,5.5,0,0,1-3.33-1.12c-1-.75-1.52-2.1-1.52-4,0-2.78-.71-4.16-2.12-4.16a1.9,1.9,0,0,0-1.65,1.19c-.42.8-.65,3.14-.67,7V107a16,16,0,0,0,.73,4.83,8,8,0,0,0,1.59,3.21Z"/></g></g><g id="developer" class="cls-2"><g class="cls-2"><path class="cls-3" d="M14.51,78a8.53,8.53,0,0,1-4.44,1.22,9.81,9.81,0,0,1-5.23-1.46,8.64,8.64,0,0,1-3.4-4A12.15,12.15,0,0,1,.5,69.11,14.87,14.87,0,0,1,1,65.44a10.94,10.94,0,0,1,4.79-6.66,9.41,9.41,0,0,1,4.94-1.45,10.55,10.55,0,0,1,3.8.65V54.21a4.31,4.31,0,0,0-.3-1.43,3.76,3.76,0,0,0-1-1.47,2.78,2.78,0,0,0-1.87-.68l9.33-3.77a1.22,1.22,0,0,1,1.18,1.31V73.79a2.17,2.17,0,0,0,.38,1.14,1.05,1.05,0,0,0,.92.54,5.65,5.65,0,0,0,1.7-.32l.16.32L15.7,79.22C15,79.22,14.58,78.81,14.51,78Zm0-.89V58.74a8.09,8.09,0,0,0-3.1-.62,3.29,3.29,0,0,0-3.64,2.82,13.61,13.61,0,0,0-.28,2.84,22.06,22.06,0,0,0,.92,6q2.16,7.47,5.38,7.46A2.55,2.55,0,0,0,14.51,77.11Z"/><path class="cls-3" d="M37.54,79.22a10.95,10.95,0,0,1-7.75-18.68,10.54,10.54,0,0,1,7.75-3.21c3.2,0,5.44,1,6.72,2.89a5.43,5.43,0,0,1,1.06,2.94,3.14,3.14,0,0,1-.68,2L34,68q2.1,4.84,4.79,6.43A9.21,9.21,0,0,0,43,76a5.36,5.36,0,0,0,2.71-.78.14.14,0,0,1,.09.12.42.42,0,0,1-.09.22A10.56,10.56,0,0,1,37.54,79.22ZM33.81,67.41l3.71-1c.8-.64,1.2-1.81,1.2-3.52a8.79,8.79,0,0,0-.6-3.07A2.17,2.17,0,0,0,36,58.2q-3.37,0-3.37,3.66A14.65,14.65,0,0,0,33.81,67.41Z"/><path class="cls-3" d="M58.26,79.14a.78.78,0,0,1-.43-.22,1.42,1.42,0,0,1-.31-.42L51.07,65c-1.29-2.65-3.2-4-5.71-4l9.31-3.73a1.11,1.11,0,0,1,.72.17q.18.18,7.59,15.63A12.3,12.3,0,0,0,64.8,67.6a7.9,7.9,0,0,0-1.24-4.79,8.71,8.71,0,0,0-2.92-2.55l7.83-2.93a5.28,5.28,0,0,1,1.38,3.79,12.52,12.52,0,0,1-2.78,7.69L59.18,79.12Z"/><path class="cls-3" d="M83,79.22a10.95,10.95,0,0,1-7.75-18.68A10.55,10.55,0,0,1,83,57.33c3.2,0,5.45,1,6.73,2.89a5.51,5.51,0,0,1,1.06,2.94,3.2,3.2,0,0,1-.68,2L79.46,68q2.1,4.84,4.78,6.43A9.23,9.23,0,0,0,88.43,76a5.36,5.36,0,0,0,2.7-.78c.07,0,.1.07.1.12a.38.38,0,0,1-.1.22A10.55,10.55,0,0,1,83,79.22ZM79.24,67.41l3.7-1c.8-.64,1.2-1.81,1.2-3.52a8.79,8.79,0,0,0-.6-3.07,2.17,2.17,0,0,0-2.16-1.61Q78,58.2,78,61.86A14.46,14.46,0,0,0,79.24,67.41Z"/><path class="cls-3" d="M96.49,78.64a1.36,1.36,0,0,1-.95-.37,1.24,1.24,0,0,1-.39-.94V54.23a4.46,4.46,0,0,0-.3-1.41,3.72,3.72,0,0,0-1-1.5A2.82,2.82,0,0,0,92,50.63l9.33-3.77a1.23,1.23,0,0,1,1.2,1.31V73.65a9.4,9.4,0,0,0,.42,2.8,4.79,4.79,0,0,0,.92,1.87v.32Z"/><path class="cls-3" d="M110.42,76a10.6,10.6,0,0,1,0-15.45,11.71,11.71,0,0,1,16.11,0,10.6,10.6,0,0,1,0,15.45,11.71,11.71,0,0,1-16.11,0Zm11.73,1a8.2,8.2,0,0,0,.65-3.58,24.58,24.58,0,0,0-1.18-7,19,19,0,0,0-2.86-6c-1-1.26-1.91-1.89-2.63-1.89-.5,0-1,.34-1.36,1a8,8,0,0,0-.64,3.6,24.87,24.87,0,0,0,1.18,7,18.79,18.79,0,0,0,2.87,6c1,1.26,1.9,1.9,2.62,1.9C121.3,78,121.76,77.69,122.15,77Z"/><path class="cls-3" d="M134.65,89.75v-27a2.17,2.17,0,0,0-.35-1.1,1,1,0,0,0-.91-.58c-.08,0-.66.11-1.74.34l-.16-.34,9.33-3.75c.73,0,1.13.42,1.18,1.25a8.49,8.49,0,0,1,4.46-1.23,9.07,9.07,0,0,1,7,2.75A10.58,10.58,0,0,1,156,67.52a12.06,12.06,0,0,1-3,8.32,9.43,9.43,0,0,1-7.31,3.38,10.57,10.57,0,0,1-3.7-.64v5.1a4.46,4.46,0,0,0,.3,1.41,3.72,3.72,0,0,0,1,1.5,2.8,2.8,0,0,0,1.87.71l-9.31,3.75A1.22,1.22,0,0,1,134.65,89.75Zm14.12-14.14a14.29,14.29,0,0,0,.26-2.76,23.45,23.45,0,0,0-.91-6q-2.18-7.45-5.38-7.46a2.74,2.74,0,0,0-.74.1V77.82a7.82,7.82,0,0,0,3.14.62A3.31,3.31,0,0,0,148.77,75.61Z"/><path class="cls-3" d="M169.37,79.22a10.94,10.94,0,0,1-7.75-18.68,10.54,10.54,0,0,1,7.75-3.21c3.2,0,5.44,1,6.72,2.89a5.43,5.43,0,0,1,1.06,2.94,3.14,3.14,0,0,1-.68,2L165.86,68q2.1,4.84,4.79,6.43A9.17,9.17,0,0,0,174.83,76a5.3,5.3,0,0,0,2.7-.78c.07,0,.1.07.1.12a.38.38,0,0,1-.1.22A10.53,10.53,0,0,1,169.37,79.22Zm-3.73-11.81,3.71-1c.8-.64,1.2-1.81,1.2-3.52a8.79,8.79,0,0,0-.6-3.07,2.19,2.19,0,0,0-2.17-1.61q-3.36,0-3.36,3.66A14.65,14.65,0,0,0,165.64,67.41Z"/><path class="cls-3" d="M190.87,78.64h-7.33a1.36,1.36,0,0,1-.95-.37,1.24,1.24,0,0,1-.39-.94V64.74a4.65,4.65,0,0,0-.29-1.39,3.69,3.69,0,0,0-1-1.5,2.82,2.82,0,0,0-1.89-.69l9.3-3.74c.75,0,1.14.43,1.19,1.3v2q2.31-3.33,4.76-3.33a4.28,4.28,0,0,1,3.29,1.07,4,4,0,0,1,1,2.86,4.43,4.43,0,0,1-1.14,3.37,3.58,3.58,0,0,1-2.52,1.07,3.11,3.11,0,0,1-1.92-.65,2.71,2.71,0,0,1-.88-2.33c0-1.6-.41-2.4-1.22-2.4a1.08,1.08,0,0,0-1,.69,12.17,12.17,0,0,0-.39,4v8.51a9.34,9.34,0,0,0,.42,2.79,4.67,4.67,0,0,0,.92,1.86Z"/></g></g><g id="engineer" class="cls-2"><g class="cls-2"><path class="cls-3" d="M514.18,148.05a7.74,7.74,0,1,1,0-15.48q3.39,0,4.76,2a3.84,3.84,0,0,1,.75,2.08,2.28,2.28,0,0,1-.48,1.39l-7.51,2a9.52,9.52,0,0,0,3.38,4.55,6.59,6.59,0,0,0,3,1.13,3.79,3.79,0,0,0,1.92-.56.11.11,0,0,1,.07.09.4.4,0,0,1-.07.16A7.51,7.51,0,0,1,514.18,148.05Zm-2.64-8.36,2.62-.71a3,3,0,0,0,.85-2.49,6.26,6.26,0,0,0-.42-2.17,1.55,1.55,0,0,0-1.53-1.14c-1.59,0-2.38.86-2.38,2.59A10.35,10.35,0,0,0,511.54,139.69Z"/><path class="cls-3" d="M534.6,147.64a.94.94,0,0,1-.68-.27.86.86,0,0,1-.27-.65v-8.67a7.26,7.26,0,0,0-.53-3.42,1.22,1.22,0,0,0-1.72-.52,5.51,5.51,0,0,0-2.94,5.16v4.91a7.24,7.24,0,0,0,.32,2,3.27,3.27,0,0,0,.65,1.27v.23h-5.21a.94.94,0,0,1-.68-.27.86.86,0,0,1-.27-.65v-8.94a3.19,3.19,0,0,0-.21-1,2.52,2.52,0,0,0-.7-1.06,2,2,0,0,0-1.33-.5l6.6-2.65a.85.85,0,0,1,.83.92v2.73a5.87,5.87,0,0,1,5.75-3.65,5.21,5.21,0,0,1,3,1.15c1.06.76,1.58,2.16,1.58,4.2v6.19a6.6,6.6,0,0,0,.3,2,3.47,3.47,0,0,0,.65,1.32v.23Z"/><path class="cls-3" d="M543.13,155.12a3.7,3.7,0,0,1-1.64-2.91,3.87,3.87,0,0,1,1.21-2.8,8.85,8.85,0,0,1,2.84-2H541.8l-.18-.34,7-3.54a8,8,0,0,1-5.11-1.61,4.77,4.77,0,0,1-2.07-3.88,4.82,4.82,0,0,1,2.07-3.9,7.89,7.89,0,0,1,5-1.61,9.06,9.06,0,0,1,1.82.18,26.25,26.25,0,0,1,2.31-1.76,4.48,4.48,0,0,1,2.45-1c1.59,0,2.39.61,2.39,1.73a1.59,1.59,0,0,1-.06.43,1.54,1.54,0,0,1-.64,1,1.29,1.29,0,0,1-1.64-.07,4.18,4.18,0,0,0-2.36-.75,3,3,0,0,0-1.41.27,3.32,3.32,0,0,0-.43.27c3.08,1.07,4.63,2.79,4.63,5.17a4.64,4.64,0,0,1-1.68,3.56,7.85,7.85,0,0,1-4.26,1.86l-2.12,1.08h4.12c2.12,0,3.63.34,4.52,1a3.27,3.27,0,0,1,1.34,2.76,5.38,5.38,0,0,1-.54,2.23,10.62,10.62,0,0,1-3.18,4,9.32,9.32,0,0,1-5.84,1.8A7.68,7.68,0,0,1,543.13,155.12Zm10.42-1a2.25,2.25,0,0,0,.66-1.33,2.89,2.89,0,0,0-.1-.76,5.85,5.85,0,0,0-2.27-3.09,8,8,0,0,0-5-1.49c-1.07.14-1.6.52-1.6,1.13q0,1.53,2.56,4,2.31,2.26,4.35,2.27A1.87,1.87,0,0,0,553.55,154.12Zm-2.75-12a3,3,0,0,0,.29-1.44,9.62,9.62,0,0,0-.9-3.79,8,8,0,0,0-1.69-2.6,2.33,2.33,0,0,0-1.36-.73.91.91,0,0,0-.85.55,3,3,0,0,0-.29,1.43,9.87,9.87,0,0,0,.9,3.81,8,8,0,0,0,1.68,2.59,2.35,2.35,0,0,0,1.37.74A.92.92,0,0,0,550.8,142.08Z"/><path class="cls-3" d="M566.91,147.64h-5.27a.92.92,0,0,1-.67-.27.87.87,0,0,1-.28-.65v-8.94a3.44,3.44,0,0,0-.2-1,2.62,2.62,0,0,0-.7-1.06,2,2,0,0,0-1.33-.5l6.59-2.65c.53,0,.81.31.84.92v10.56a5.67,5.67,0,0,0,1,3.32Zm-3.74-17.08a3.55,3.55,0,0,1-2.32-.77,2.39,2.39,0,0,1-.93-1.91,2.42,2.42,0,0,1,1.05-1.94,3.88,3.88,0,0,1,2.43-.78,3.51,3.51,0,0,1,2.33.78,2.35,2.35,0,0,1-.12,3.84A3.93,3.93,0,0,1,563.17,130.56Z"/><path class="cls-3" d="M582,147.64a.94.94,0,0,1-.68-.27.86.86,0,0,1-.27-.65v-8.67a7.26,7.26,0,0,0-.53-3.42,1.22,1.22,0,0,0-1.72-.52,5.5,5.5,0,0,0-2.93,5.16v4.91a6.87,6.87,0,0,0,.31,2,3.27,3.27,0,0,0,.65,1.27v.23H571.6a.94.94,0,0,1-.68-.27.86.86,0,0,1-.27-.65v-8.94a3.19,3.19,0,0,0-.21-1,2.52,2.52,0,0,0-.7-1.06,2,2,0,0,0-1.33-.5l6.6-2.65a.86.86,0,0,1,.84.92v2.73a5.85,5.85,0,0,1,5.74-3.65,5.21,5.21,0,0,1,3,1.15c1.06.76,1.58,2.16,1.58,4.2v6.19a6.6,6.6,0,0,0,.3,2,3.47,3.47,0,0,0,.65,1.32v.23Z"/><path class="cls-3" d="M596.35,148.05a7.74,7.74,0,1,1,0-15.48c2.27,0,3.85.68,4.76,2a3.84,3.84,0,0,1,.75,2.08,2.28,2.28,0,0,1-.48,1.39l-7.51,2q1.49,3.42,3.39,4.55a6.52,6.52,0,0,0,3,1.13,3.79,3.79,0,0,0,1.92-.56.11.11,0,0,1,.07.09.4.4,0,0,1-.07.16A7.51,7.51,0,0,1,596.35,148.05Zm-2.64-8.36,2.62-.71a3,3,0,0,0,.85-2.49,6.26,6.26,0,0,0-.42-2.17,1.54,1.54,0,0,0-1.53-1.14c-1.59,0-2.38.86-2.38,2.59A10.35,10.35,0,0,0,593.71,139.69Z"/><path class="cls-3" d="M611.32,148.05a7.74,7.74,0,1,1,0-15.48c2.26,0,3.85.68,4.75,2a3.84,3.84,0,0,1,.75,2.08,2.28,2.28,0,0,1-.48,1.39l-7.5,2a9.52,9.52,0,0,0,3.38,4.55,6.55,6.55,0,0,0,3,1.13,3.75,3.75,0,0,0,1.91-.56.09.09,0,0,1,.07.09.3.3,0,0,1-.07.16A7.47,7.47,0,0,1,611.32,148.05Zm-2.64-8.36,2.62-.71a3,3,0,0,0,.85-2.49,6.26,6.26,0,0,0-.42-2.17,1.55,1.55,0,0,0-1.53-1.14c-1.59,0-2.38.86-2.38,2.59A10.35,10.35,0,0,0,608.68,139.69Z"/><path class="cls-3" d="M626.52,147.64h-5.18a.92.92,0,0,1-.67-.27.87.87,0,0,1-.28-.65v-8.91a3.44,3.44,0,0,0-.2-1,2.62,2.62,0,0,0-.7-1.06,2,2,0,0,0-1.33-.49l6.58-2.64c.53,0,.81.3.84.92V135c1.09-1.57,2.21-2.35,3.37-2.35a3.06,3.06,0,0,1,2.33.75,2.93,2.93,0,0,1,.68,2,3.11,3.11,0,0,1-.81,2.38,2.51,2.51,0,0,1-1.78.76,2.23,2.23,0,0,1-1.36-.46,2,2,0,0,1-.62-1.65c0-1.13-.29-1.7-.87-1.7a.77.77,0,0,0-.67.49,8.66,8.66,0,0,0-.27,2.87v6a6.59,6.59,0,0,0,.29,2,3.41,3.41,0,0,0,.65,1.31Z"/></g></g><g id="interior" class="cls-2"><g class="cls-2"><path class="cls-3" d="M116.8,172.64H109a1.37,1.37,0,0,1-1-.39,1.28,1.28,0,0,1-.41-1V158a5,5,0,0,0-.31-1.48,3.76,3.76,0,0,0-1-1.57,3,3,0,0,0-2-.75l9.78-3.92c.79,0,1.2.45,1.24,1.36v15.66a8.45,8.45,0,0,0,1.51,4.92Zm-5.54-25.33a5.23,5.23,0,0,1-3.44-1.14,3.5,3.5,0,0,1-1.39-2.82,3.61,3.61,0,0,1,1.57-2.88,5.76,5.76,0,0,1,3.6-1.15,5.22,5.22,0,0,1,3.46,1.15,3.47,3.47,0,0,1-.19,5.69A5.81,5.81,0,0,1,111.26,147.31Z"/><path class="cls-3" d="M139.14,172.64a1.37,1.37,0,0,1-1-.39,1.28,1.28,0,0,1-.41-1V158.42c0-2.7-.29-4.39-.79-5.07a2,2,0,0,0-1.57-1,2.13,2.13,0,0,0-1,.25,8.17,8.17,0,0,0-4.35,7.65v7.28a10.81,10.81,0,0,0,.47,2.91,4.82,4.82,0,0,0,1,1.88v.34h-7.73a1.37,1.37,0,0,1-1-.39,1.28,1.28,0,0,1-.41-1V158a4.65,4.65,0,0,0-.31-1.48,3.76,3.76,0,0,0-1-1.57,3,3,0,0,0-2-.75l9.78-3.92a1.26,1.26,0,0,1,1.24,1.36v4.05a8.67,8.67,0,0,1,8.53-5.41,7.73,7.73,0,0,1,4.51,1.7q2.35,1.69,2.35,6.23v9.18a10,10,0,0,0,.44,2.94,5,5,0,0,0,1,2v.34Z"/><path class="cls-3" d="M153.22,171.72a5,5,0,0,1-1.33-3.37V154.22h-3.57v-.71a18.43,18.43,0,0,0,6.13-4.14,19.92,19.92,0,0,0,4.37-5.73l.86.48v3.74a6.29,6.29,0,0,0,1.38,3.8,4.1,4.1,0,0,0,3.34,1.85h.51v.71h-5.23v13.12q0,3.57,2.83,3.57a7.78,7.78,0,0,0,4-1.59V170a19.13,19.13,0,0,1-3.49,2.18,11.94,11.94,0,0,1-5.3,1Q154.56,173.25,153.22,171.72Z"/><path class="cls-3" d="M178.45,173.25a11.48,11.48,0,1,1,0-22.95c3.36,0,5.71,1,7.05,3a5.74,5.74,0,0,1,1.12,3.09,3.31,3.31,0,0,1-.72,2.05l-11.13,3c1.47,3.39,3.15,5.64,5,6.76a9.67,9.67,0,0,0,4.39,1.66,5.6,5.6,0,0,0,2.83-.81.14.14,0,0,1,.11.12.46.46,0,0,1-.11.23A11.06,11.06,0,0,1,178.45,173.25Zm-3.91-12.39,3.89-1.05c.84-.67,1.26-1.91,1.26-3.7a9.23,9.23,0,0,0-.63-3.22,2.29,2.29,0,0,0-2.27-1.69q-3.53,0-3.53,3.84A15.31,15.31,0,0,0,174.54,160.86Z"/><path class="cls-3" d="M201,172.64h-7.69a1.37,1.37,0,0,1-1-.39,1.28,1.28,0,0,1-.41-1V158.06a4.85,4.85,0,0,0-.31-1.45,3.77,3.77,0,0,0-1-1.58,2.89,2.89,0,0,0-2-.72l9.76-3.93c.79,0,1.2.45,1.24,1.37v2.14q2.43-3.49,5-3.49a4.52,4.52,0,0,1,3.45,1.11,4.3,4.3,0,0,1,1,3,4.61,4.61,0,0,1-1.2,3.53,3.77,3.77,0,0,1-2.64,1.13,3.37,3.37,0,0,1-2-.68,2.89,2.89,0,0,1-.92-2.45c0-1.68-.43-2.52-1.28-2.52a1.14,1.14,0,0,0-1,.72,13.15,13.15,0,0,0-.41,4.25v8.93a10,10,0,0,0,.44,2.93,5,5,0,0,0,1,1.94Z"/><path class="cls-3" d="M223.38,172.64h-7.81a1.41,1.41,0,0,1-1-.39,1.31,1.31,0,0,1-.41-1V158a4.88,4.88,0,0,0-.3-1.48,3.76,3.76,0,0,0-1-1.57,3,3,0,0,0-2-.75l9.78-3.92c.78,0,1.2.45,1.24,1.36v15.66a8.38,8.38,0,0,0,1.51,4.92Zm-5.54-25.33a5.25,5.25,0,0,1-3.45-1.14,3.52,3.52,0,0,1-1.38-2.82,3.62,3.62,0,0,1,1.56-2.88,5.8,5.8,0,0,1,3.6-1.15,5.24,5.24,0,0,1,3.47,1.15,3.48,3.48,0,0,1-.19,5.69A5.83,5.83,0,0,1,217.84,147.31Z"/><path class="cls-3" d="M229.54,169.89a11.16,11.16,0,0,1,0-16.21,12.31,12.31,0,0,1,16.9,0,11.13,11.13,0,0,1,0,16.21,12.31,12.31,0,0,1-16.9,0Zm12.31,1a8.57,8.57,0,0,0,.68-3.75,25.75,25.75,0,0,0-1.24-7.4,19.67,19.67,0,0,0-3-6.24c-1.08-1.32-2-2-2.75-2-.54,0-1,.37-1.43,1.1a8.24,8.24,0,0,0-.67,3.78,25.62,25.62,0,0,0,1.24,7.37,19.67,19.67,0,0,0,3,6.24c1.08,1.32,2,2,2.75,2C241,172,241.43,171.64,241.85,170.91Z"/><path class="cls-3" d="M263.86,172.64h-7.68a1.38,1.38,0,0,1-1-.39,1.31,1.31,0,0,1-.41-1V158.06a4.55,4.55,0,0,0-.31-1.45,3.85,3.85,0,0,0-1-1.58,2.94,2.94,0,0,0-2-.72l9.76-3.93c.79,0,1.2.45,1.24,1.37v2.14c1.63-2.33,3.29-3.49,5-3.49a4.51,4.51,0,0,1,3.45,1.11,4.3,4.3,0,0,1,1,3,4.64,4.64,0,0,1-1.19,3.53,3.79,3.79,0,0,1-2.65,1.13,3.37,3.37,0,0,1-2-.68,2.89,2.89,0,0,1-.92-2.45c0-1.68-.43-2.52-1.28-2.52a1.14,1.14,0,0,0-1,.72,13.15,13.15,0,0,0-.41,4.25v8.93a10,10,0,0,0,.44,2.93,5,5,0,0,0,1,1.94Z"/></g></g><g id="researcher" class="cls-2"><g class="cls-2"><path class="cls-3" d="M200.55,257.14h-7.33a1.36,1.36,0,0,1-.95-.37,1.24,1.24,0,0,1-.39-.94V243.24a4.35,4.35,0,0,0-.29-1.39,3.59,3.59,0,0,0-1-1.5,2.82,2.82,0,0,0-1.89-.69l9.31-3.74c.75,0,1.14.43,1.18,1.3v2q2.32-3.33,4.76-3.33a4.32,4.32,0,0,1,3.3,1.07,4,4,0,0,1,1,2.86,4.43,4.43,0,0,1-1.14,3.37,3.58,3.58,0,0,1-2.52,1.07,3.14,3.14,0,0,1-1.93-.65,2.74,2.74,0,0,1-.88-2.33c0-1.6-.4-2.4-1.22-2.4a1.09,1.09,0,0,0-1,.69,12.17,12.17,0,0,0-.39,4v8.51a9.34,9.34,0,0,0,.42,2.79,4.81,4.81,0,0,0,.92,1.86Z"/><path class="cls-3" d="M221.41,257.72a10.95,10.95,0,1,1,0-21.89c3.21,0,5.45,1,6.73,2.89a5.43,5.43,0,0,1,1.06,2.94,3.2,3.2,0,0,1-.68,2l-10.61,2.85q2.1,4.84,4.78,6.43a9.23,9.23,0,0,0,4.19,1.59,5.33,5.33,0,0,0,2.7-.78c.07,0,.1.07.1.12a.38.38,0,0,1-.1.22A10.55,10.55,0,0,1,221.41,257.72Zm-3.72-11.81,3.7-1c.8-.64,1.2-1.81,1.2-3.52a8.79,8.79,0,0,0-.6-3.07,2.17,2.17,0,0,0-2.16-1.61q-3.36,0-3.36,3.66A14.46,14.46,0,0,0,217.69,245.91Z"/><path class="cls-3" d="M235.21,257.23c-1.71-.36-2.57-.8-2.57-1.31,0,0,.37-1.79,1.1-5.25l.4-.06a24.87,24.87,0,0,0,4.25,4.62,5.94,5.94,0,0,0,3.5,1.6,3,3,0,0,0,1.92-.58,2.28,2.28,0,0,0,.72-1.86,2.79,2.79,0,0,0-1.45-2.33,19.68,19.68,0,0,0-3.41-1.79,21.52,21.52,0,0,1-5.16-3,6.65,6.65,0,0,1-2.41-5.38,5.13,5.13,0,0,1,2.36-4.21,10.32,10.32,0,0,1,6.33-1.75c4.6,0,6.94.8,7,2.42l-.16,4.56-.54,0a9.44,9.44,0,0,0-3.22-4.08,7.68,7.68,0,0,0-4.75-2,3.15,3.15,0,0,0-1.8.43,1.42,1.42,0,0,0-.64,1.27,2.41,2.41,0,0,0,1.3,2,20.39,20.39,0,0,0,3.38,1.68,26.21,26.21,0,0,1,5.64,3.05,6.44,6.44,0,0,1,2.69,5.58,5.69,5.69,0,0,1-3.22,5,12.76,12.76,0,0,1-6.55,1.9A23.6,23.6,0,0,1,235.21,257.23Z"/><path class="cls-3" d="M262.61,257.72a10.95,10.95,0,1,1,0-21.89c3.2,0,5.45,1,6.73,2.89a5.51,5.51,0,0,1,1.06,2.94,3.2,3.2,0,0,1-.68,2l-10.61,2.85q2.1,4.84,4.78,6.43a9.23,9.23,0,0,0,4.19,1.59,5.36,5.36,0,0,0,2.7-.78c.07,0,.1.07.1.12a.38.38,0,0,1-.1.22A10.53,10.53,0,0,1,262.61,257.72Zm-3.72-11.81,3.7-1c.8-.64,1.2-1.81,1.2-3.52a8.79,8.79,0,0,0-.6-3.07A2.17,2.17,0,0,0,261,236.7q-3.36,0-3.36,3.66A14.46,14.46,0,0,0,258.89,245.91Z"/><path class="cls-3" d="M277.21,257.7a4.39,4.39,0,0,1-2.21-.55,3.17,3.17,0,0,1-1.33-1.44,4.1,4.1,0,0,1-.39-1.68,5.15,5.15,0,0,1,1.75-3.27q1.75-1.83,9.06-5.24l0-3.46a17.55,17.55,0,0,0-.36-4.16,1.82,1.82,0,0,0-2-1.44,1.76,1.76,0,0,0-1.45.59,3.57,3.57,0,0,0-.49,2.21c0,.28,0,.55,0,.81s0,.5,0,.73c0,1.4-.31,2.33-.93,2.77a4.31,4.31,0,0,1-2.57.67,3.07,3.07,0,0,1-1.89-.6,2.32,2.32,0,0,1-.8-2,4.28,4.28,0,0,1,1.12-2.37,8.61,8.61,0,0,1,3.42-2.44,11.17,11.17,0,0,1,4.57-1,10.08,10.08,0,0,1,6.21,1.8q2.4,1.78,2.42,6l0,8.79c0,1.59.73,2.38,2.08,2.38a4,4,0,0,0,2.06-.6l.24.42-6.14,2.63a4.29,4.29,0,0,1-1.76.38,3.48,3.48,0,0,1-2-.66,4.79,4.79,0,0,1-1.56-1.77A13.14,13.14,0,0,1,277.21,257.7Zm6.4-3.79.5,0,0-7.72q-4,2.37-4,4.52a2.85,2.85,0,0,0,1.07,2.38A3.89,3.89,0,0,0,283.61,253.91Z"/><path class="cls-3" d="M307.18,257.14h-7.33a1.35,1.35,0,0,1-1-.37,1.24,1.24,0,0,1-.39-.94V243.24a4.65,4.65,0,0,0-.29-1.39,3.69,3.69,0,0,0-1-1.5,2.85,2.85,0,0,0-1.9-.69l9.31-3.74c.75,0,1.14.43,1.18,1.3v2q2.32-3.33,4.77-3.33a4.29,4.29,0,0,1,3.29,1.07,4,4,0,0,1,1,2.86,4.43,4.43,0,0,1-1.14,3.37,3.58,3.58,0,0,1-2.52,1.07,3.09,3.09,0,0,1-1.92-.65,2.71,2.71,0,0,1-.88-2.33c0-1.6-.41-2.4-1.22-2.4a1.1,1.1,0,0,0-1,.69,12.78,12.78,0,0,0-.39,4v8.51a9.34,9.34,0,0,0,.42,2.79,4.8,4.8,0,0,0,.93,1.86Z"/><path class="cls-3" d="M328.08,257.72a10.95,10.95,0,1,1,0-21.89,8.5,8.5,0,0,1,5.76,2,5.74,5.74,0,0,1,2.32,4.38,2.75,2.75,0,0,1-.9,2.1,3.88,3.88,0,0,1-2.7.86,4.18,4.18,0,0,1-3.4-1.22,5.48,5.48,0,0,1-1-3.6,6.73,6.73,0,0,0-.48-2.94,1.44,1.44,0,0,0-1.29-.78c-2,0-3,1.49-3,4.48a14.4,14.4,0,0,0,1.82,6.91,14.59,14.59,0,0,0,4.42,4.93,8,8,0,0,0,4.05,1.65,4.37,4.37,0,0,0,2.62-.9l.16.1A10.73,10.73,0,0,1,328.08,257.72Z"/><path class="cls-3" d="M356.64,257.14a1.41,1.41,0,0,1-1-.37,1.25,1.25,0,0,1-.4-.94V244.36c0-2.6-.32-4.35-.91-5.24a2.54,2.54,0,0,0-2.15-1.34c-.71,0-1.55.62-2.51,1.87A10.46,10.46,0,0,0,348,245.3v6.85a9.41,9.41,0,0,0,.43,2.8,4.66,4.66,0,0,0,.92,1.87v.32H342a1.32,1.32,0,0,1-1.34-1.41v-23a4.69,4.69,0,0,0-.29-1.41,3.72,3.72,0,0,0-1-1.5,2.86,2.86,0,0,0-1.89-.69l9.33-3.77a1.22,1.22,0,0,1,1.18,1.31V241a8.29,8.29,0,0,1,8.13-5.17,7.47,7.47,0,0,1,4.3,1.63q2.25,1.62,2.25,5.94v8.75a9.4,9.4,0,0,0,.42,2.8,4.79,4.79,0,0,0,.92,1.87v.32Z"/><path class="cls-3" d="M376.94,257.72a10.95,10.95,0,0,1,0-21.89c3.21,0,5.45,1,6.73,2.89a5.43,5.43,0,0,1,1.06,2.94,3.2,3.2,0,0,1-.68,2l-10.61,2.85c1.4,3.23,3,5.37,4.78,6.43a9.23,9.23,0,0,0,4.19,1.59,5.3,5.3,0,0,0,2.7-.78c.07,0,.1.07.1.12a.38.38,0,0,1-.1.22A10.53,10.53,0,0,1,376.94,257.72Zm-3.72-11.81,3.7-1c.8-.64,1.2-1.81,1.2-3.52a8.79,8.79,0,0,0-.6-3.07,2.17,2.17,0,0,0-2.16-1.61q-3.36,0-3.36,3.66A14.65,14.65,0,0,0,373.22,245.91Z"/><path class="cls-3" d="M398.44,257.14h-7.32a1.35,1.35,0,0,1-.95-.37,1.24,1.24,0,0,1-.39-.94V243.24a4.65,4.65,0,0,0-.29-1.39,3.72,3.72,0,0,0-1-1.5,2.82,2.82,0,0,0-1.89-.69l9.31-3.74c.75,0,1.14.43,1.18,1.3v2q2.32-3.33,4.77-3.33a4.29,4.29,0,0,1,3.29,1.07,4,4,0,0,1,1,2.86,4.43,4.43,0,0,1-1.14,3.37,3.58,3.58,0,0,1-2.52,1.07,3.09,3.09,0,0,1-1.92-.65,2.71,2.71,0,0,1-.88-2.33q0-2.4-1.23-2.4a1.1,1.1,0,0,0-.95.69,12.78,12.78,0,0,0-.39,4v8.51a9.34,9.34,0,0,0,.42,2.79,4.81,4.81,0,0,0,.92,1.86Z"/></g></g><g id="coder" class="cls-2"><g class="cls-2"><path class="cls-3" d="M337.5,204.18a19.75,19.75,0,1,1,0-39.49,15.44,15.44,0,0,1,10.41,3.61q4.18,3.62,4.19,7.92a5,5,0,0,1-1.63,3.79,7,7,0,0,1-4.88,1.55q-4.29,0-6.14-2.2t-1.84-6.5q0-3.92-.87-5.32a2.57,2.57,0,0,0-2.31-1.4q-5.49,0-5.49,8.09a25.94,25.94,0,0,0,3.28,12.47,26.46,26.46,0,0,0,8,8.9q4.5,3,7.32,3a7.93,7.93,0,0,0,4.73-1.62l.29.18A19.44,19.44,0,0,1,337.5,204.18Z"/><path class="cls-3" d="M362.45,198.4a19.16,19.16,0,0,1,0-27.89,21.19,21.19,0,0,1,29.09,0,19.18,19.18,0,0,1,0,27.89,21.19,21.19,0,0,1-29.09,0Zm21.17,1.77c.71-1.25,1.1-3.41,1.18-6.46A44.34,44.34,0,0,0,382.67,181q-2.39-7.34-5.17-10.75c-1.86-2.28-3.43-3.42-4.73-3.42-.92,0-1.74.63-2.46,1.88s-1.11,3.42-1.16,6.51a44.36,44.36,0,0,0,2.13,12.68q2.39,7.34,5.17,10.75t4.73,3.41C382.1,202.05,382.91,201.43,383.62,200.17Z"/><path class="cls-3" d="M426.86,202a15.38,15.38,0,0,1-8,2.2,17.51,17.51,0,0,1-9.43-2.62,15.65,15.65,0,0,1-6.14-7.28,22,22,0,0,1-1.7-8.34,26.66,26.66,0,0,1,.87-6.62,19.72,19.72,0,0,1,8.64-12,16.89,16.89,0,0,1,8.92-2.6,19.26,19.26,0,0,1,6.87,1.16v-6.8a7.63,7.63,0,0,0-.55-2.58,6.75,6.75,0,0,0-1.78-2.66,5,5,0,0,0-3.38-1.22l16.83-6.8a2.19,2.19,0,0,1,2.14,2.35v46.25a3.93,3.93,0,0,0,.68,2.06,1.89,1.89,0,0,0,1.66,1,10.92,10.92,0,0,0,3.08-.58l.29.58L429,204.18C427.69,204.18,427,203.45,426.86,202Zm0-1.59V167.22a14.88,14.88,0,0,0-5.6-1.12q-5.53,0-6.58,5.09a25,25,0,0,0-.51,5.14,40.16,40.16,0,0,0,1.67,10.76q3.9,13.49,9.71,13.48A4.92,4.92,0,0,0,426.86,200.39Z"/><path class="cls-3" d="M468.41,204.18a19.75,19.75,0,1,1,0-39.49q8.67,0,12.14,5.2a9.8,9.8,0,0,1,1.91,5.32,5.82,5.82,0,0,1-1.22,3.54l-19.15,5.13q3.8,8.75,8.63,11.61t7.55,2.88a9.6,9.6,0,0,0,4.88-1.41q.18.07.18.21a.78.78,0,0,1-.18.4A19,19,0,0,1,468.41,204.18Zm-6.72-21.31,6.68-1.81q2.17-1.74,2.17-6.36a16,16,0,0,0-1.08-5.55,4,4,0,0,0-3.91-2.91q-6.06,0-6.07,6.62A26.23,26.23,0,0,0,461.69,182.87Z"/><path class="cls-3" d="M507.21,203.14H494a2.44,2.44,0,0,1-1.72-.67,2.23,2.23,0,0,1-.7-1.68V178.06a8.41,8.41,0,0,0-.52-2.51,6.58,6.58,0,0,0-1.77-2.71,5.09,5.09,0,0,0-3.42-1.25l16.8-6.76c1.35,0,2.06.79,2.13,2.35v3.69q4.2-6,8.6-6,4.2,0,6,1.92a7.33,7.33,0,0,1,1.75,5.16q0,4.16-2.06,6.09a6.5,6.5,0,0,1-4.55,1.93A5.72,5.72,0,0,1,511,178.8c-1.06-.78-1.59-2.19-1.59-4.21q0-4.34-2.21-4.34a2,2,0,0,0-1.71,1.25c-.45.83-.68,3.27-.71,7.32v15.35a17.11,17.11,0,0,0,.76,5.05,8.51,8.51,0,0,0,1.66,3.34Z"/></g></g><g id="programmer" class="cls-2"><g class="cls-2"><path class="cls-3" d="M122.89,29.85V7.47a1.7,1.7,0,0,0-.29-.91.85.85,0,0,0-.75-.48c-.07,0-.55.09-1.45.28l-.13-.28L128,3c.61,0,.93.34,1,1a7.12,7.12,0,0,1,3.7-1,7.53,7.53,0,0,1,5.83,2.27,8.77,8.77,0,0,1,2.09,6.16,10,10,0,0,1-2.49,6.9,7.83,7.83,0,0,1-6.06,2.8,8.72,8.72,0,0,1-3.07-.53v4.23a3.79,3.79,0,0,0,.24,1.17,3.12,3.12,0,0,0,.83,1.25,2.38,2.38,0,0,0,1.55.58l-7.72,3.11A1,1,0,0,1,122.89,29.85ZM134.6,18.13a12,12,0,0,0,.21-2.29,19.67,19.67,0,0,0-.74-5c-1.21-4.12-2.7-6.19-4.47-6.19a2.62,2.62,0,0,0-.61.08V20a6.45,6.45,0,0,0,2.6.51A2.74,2.74,0,0,0,134.6,18.13Z"/><path class="cls-3" d="M152,20.64h-6.07a1.12,1.12,0,0,1-.79-.31,1,1,0,0,1-.33-.77V9.11A3.79,3.79,0,0,0,144.53,8a3,3,0,0,0-.81-1.24,2.36,2.36,0,0,0-1.57-.58L149.87,3c.62,0,.95.36,1,1.08V5.81q1.92-2.76,4-2.76a3.59,3.59,0,0,1,2.73.88,3.38,3.38,0,0,1,.81,2.38,3.7,3.7,0,0,1-1,2.8,3,3,0,0,1-2.09.88,2.59,2.59,0,0,1-1.59-.54A2.24,2.24,0,0,1,153,7.52c0-1.33-.33-2-1-2a.91.91,0,0,0-.79.57,10.4,10.4,0,0,0-.32,3.36v7.06a7.74,7.74,0,0,0,.35,2.31,4,4,0,0,0,.76,1.54Z"/><path class="cls-3" d="M162.86,18.46a8.58,8.58,0,0,1-2.76-6.41,8.59,8.59,0,0,1,2.76-6.41,9.76,9.76,0,0,1,13.37,0A8.59,8.59,0,0,1,179,12.05a8.58,8.58,0,0,1-2.76,6.41,9.73,9.73,0,0,1-13.37,0Zm9.73.81a6.66,6.66,0,0,0,.54-3,20.53,20.53,0,0,0-1-5.84,15.76,15.76,0,0,0-2.37-4.94c-.86-1-1.58-1.57-2.18-1.57-.42,0-.8.29-1.13.86a6.68,6.68,0,0,0-.53,3,20.46,20.46,0,0,0,1,5.83,15.76,15.76,0,0,0,2.37,4.94c.86,1,1.58,1.57,2.18,1.57C171.89,20.14,172.26,19.85,172.59,19.27Z"/><path class="cls-3" d="M182.87,29.41A4.33,4.33,0,0,1,181,26a4.58,4.58,0,0,1,1.41-3.29,10.45,10.45,0,0,1,3.34-2.29h-4.39l-.21-.4,8.27-4.15a9.53,9.53,0,0,1-6-1.88A5.64,5.64,0,0,1,181,9.43a5.67,5.67,0,0,1,2.42-4.57A9.24,9.24,0,0,1,189.22,3a9.9,9.9,0,0,1,2.12.22,29.82,29.82,0,0,1,2.71-2.07A5.24,5.24,0,0,1,196.92,0c1.87,0,2.8.71,2.8,2a2.05,2.05,0,0,1-.06.49,1.82,1.82,0,0,1-.76,1.18,1.85,1.85,0,0,1-.85.3A1.93,1.93,0,0,1,197,3.62a4.9,4.9,0,0,0-2.78-.88,3.49,3.49,0,0,0-1.64.31c-.22.13-.39.23-.52.32q5.43,1.88,5.43,6.06a5.42,5.42,0,0,1-2,4.17,9.15,9.15,0,0,1-5,2.19L188,17.05h4.83q3.74,0,5.3,1.2a3.83,3.83,0,0,1,1.57,3.23,6.42,6.42,0,0,1-.63,2.63,12.5,12.5,0,0,1-3.73,4.71,10.91,10.91,0,0,1-6.84,2.11A9,9,0,0,1,182.87,29.41Zm12.21-1.17a2.64,2.64,0,0,0,.78-1.56,3.6,3.6,0,0,0-.12-.9,6.93,6.93,0,0,0-2.66-3.62,9.41,9.41,0,0,0-5.89-1.74c-1.25.17-1.88.61-1.88,1.33,0,1.19,1,2.78,3,4.75q2.7,2.66,5.1,2.65A2.18,2.18,0,0,0,195.08,28.24Zm-3.22-14.11a3.61,3.61,0,0,0,.35-1.7A11.23,11.23,0,0,0,191.14,8a9.18,9.18,0,0,0-2-3,2.79,2.79,0,0,0-1.6-.87,1.08,1.08,0,0,0-1,.65,3.56,3.56,0,0,0-.34,1.68,11.41,11.41,0,0,0,1.06,4.46,9.34,9.34,0,0,0,2,3,2.74,2.74,0,0,0,1.6.87A1.08,1.08,0,0,0,191.86,14.13Z"/><path class="cls-3" d="M210.63,20.64h-6.07a1.12,1.12,0,0,1-.79-.31,1,1,0,0,1-.33-.77V9.11A3.79,3.79,0,0,0,203.2,8a3,3,0,0,0-.81-1.24,2.36,2.36,0,0,0-1.57-.58L208.54,3c.62,0,1,.36,1,1.08V5.81q1.92-2.76,3.95-2.76a3.59,3.59,0,0,1,2.73.88A3.38,3.38,0,0,1,217,6.31a3.7,3.7,0,0,1-.95,2.8A3,3,0,0,1,214,10a2.59,2.59,0,0,1-1.59-.54,2.24,2.24,0,0,1-.74-1.93c0-1.33-.33-2-1-2a.91.91,0,0,0-.79.57,10.4,10.4,0,0,0-.32,3.36v7.06a7.74,7.74,0,0,0,.35,2.31,4,4,0,0,0,.76,1.54Z"/><path class="cls-3" d="M222.49,21.1a3.5,3.5,0,0,1-1.83-.46,2.54,2.54,0,0,1-1.1-1.18,3.43,3.43,0,0,1-.33-1.4,4.28,4.28,0,0,1,1.45-2.71c1-1,3.48-2.46,7.52-4.34V8.13a14.51,14.51,0,0,0-.3-3.45,1.5,1.5,0,0,0-1.64-1.19,1.46,1.46,0,0,0-1.2.49,3,3,0,0,0-.41,1.83c0,.23,0,.46,0,.67s0,.42,0,.61a2.7,2.7,0,0,1-.77,2.3,3.57,3.57,0,0,1-2.13.55,2.52,2.52,0,0,1-1.56-.49,2,2,0,0,1-.67-1.65,3.56,3.56,0,0,1,.93-2,7.26,7.26,0,0,1,2.83-2,9.37,9.37,0,0,1,3.8-.84,8.36,8.36,0,0,1,5.14,1.49q2,1.49,2,5l0,7.29c0,1.32.6,2,1.72,2a3.34,3.34,0,0,0,1.71-.5l.2.35-5.09,2.17a3.57,3.57,0,0,1-1.47.32,3,3,0,0,1-1.65-.55,4,4,0,0,1-1.28-1.46A10.9,10.9,0,0,1,222.49,21.1ZM227.8,18h.41V11.54q-3.34,2-3.34,3.75a2.39,2.39,0,0,0,.89,2A3.23,3.23,0,0,0,227.8,18Z"/><path class="cls-3" d="M262.83,20.64a1.16,1.16,0,0,1-.8-.31,1,1,0,0,1-.33-.77V8.65c0-2.71-.48-4.07-1.45-4.07a3,3,0,0,0-2.13,1.22A4.19,4.19,0,0,0,257,8.52v8a7.65,7.65,0,0,0,.35,2.33,3.68,3.68,0,0,0,.78,1.54v.27H252a1.12,1.12,0,0,1-.79-.31,1,1,0,0,1-.33-.77V8.27a9.12,9.12,0,0,0-.3-2.82c-.21-.53-.51-.8-.92-.8A2.26,2.26,0,0,0,248,5.4a6.1,6.1,0,0,0-1.21,2.25,9.62,9.62,0,0,0-.52,3.17l0,5.86a5.63,5.63,0,0,0,1.08,3.69v.27h-6.1a1.14,1.14,0,0,1-.79-.31,1,1,0,0,1-.32-.77V9.08a3.79,3.79,0,0,0-.24-1.17,3.06,3.06,0,0,0-.82-1.24,2.38,2.38,0,0,0-1.56-.59L245.26,3a1,1,0,0,1,1,1.08v3Q247.64,3,252.3,3a5.32,5.32,0,0,1,2.79.79,4,4,0,0,1,1.79,2.43A6.65,6.65,0,0,1,263,3a5.86,5.86,0,0,1,3.24,1c1,.68,1.56,1.94,1.57,3.77l0,8.75a7.65,7.65,0,0,0,.35,2.33,3.82,3.82,0,0,0,.76,1.54v.27Z"/><path class="cls-3" d="M295.67,20.64a1.16,1.16,0,0,1-.8-.31,1,1,0,0,1-.33-.77V8.65c0-2.71-.49-4.07-1.45-4.07A3,3,0,0,0,291,5.8a4.19,4.19,0,0,0-1.1,2.72v8a8,8,0,0,0,.34,2.33,3.93,3.93,0,0,0,.78,1.54v.27h-6.1a1.1,1.1,0,0,1-.79-.31,1,1,0,0,1-.33-.77V8.27a9.12,9.12,0,0,0-.3-2.82c-.21-.53-.52-.8-.93-.8a2.25,2.25,0,0,0-1.72.75,6.1,6.1,0,0,0-1.21,2.25,9.62,9.62,0,0,0-.52,3.17l.05,5.86a5.51,5.51,0,0,0,1.08,3.69l0,.27H274.1a1.14,1.14,0,0,1-.79-.31,1,1,0,0,1-.32-.77V9.08a3.79,3.79,0,0,0-.24-1.17,3.06,3.06,0,0,0-.82-1.24,2.38,2.38,0,0,0-1.56-.59L278.1,3a1,1,0,0,1,1,1.08v3q1.4-4.1,6.06-4.1a5.37,5.37,0,0,1,2.79.79,4,4,0,0,1,1.79,2.43A6.65,6.65,0,0,1,295.81,3a5.89,5.89,0,0,1,3.25,1c1,.68,1.56,1.94,1.57,3.77l0,8.75a8,8,0,0,0,.34,2.33,3.94,3.94,0,0,0,.77,1.54v.27Z"/><path class="cls-3" d="M312.73,21.12a8.75,8.75,0,0,1-6.42-2.66,8.74,8.74,0,0,1-2.66-6.41,8.75,8.75,0,0,1,2.66-6.42A8.75,8.75,0,0,1,312.73,3q4,0,5.58,2.39a4.5,4.5,0,0,1,.88,2.44,2.63,2.63,0,0,1-.57,1.63l-8.79,2.36q1.74,4,4,5.33a7.66,7.66,0,0,0,3.47,1.32,4.45,4.45,0,0,0,2.25-.64.11.11,0,0,1,.08.1.42.42,0,0,1-.08.18A8.8,8.8,0,0,1,312.73,21.12Zm-3.09-9.8,3.07-.83a3.54,3.54,0,0,0,1-2.92,7.34,7.34,0,0,0-.5-2.55,1.8,1.8,0,0,0-1.79-1.33q-2.79,0-2.79,3A12.09,12.09,0,0,0,309.64,11.32Z"/><path class="cls-3" d="M330.56,20.64h-6.07a1.12,1.12,0,0,1-.79-.31,1,1,0,0,1-.33-.77V9.11A3.79,3.79,0,0,0,323.13,8a3,3,0,0,0-.81-1.24,2.36,2.36,0,0,0-1.57-.58L328.47,3c.62,0,.95.36,1,1.08V5.81q1.92-2.76,3.95-2.76a3.6,3.6,0,0,1,2.73.88,3.38,3.38,0,0,1,.81,2.38,3.7,3.7,0,0,1-.95,2.8,3,3,0,0,1-2.09.88,2.64,2.64,0,0,1-1.6-.54,2.27,2.27,0,0,1-.73-1.93c0-1.33-.33-2-1-2a.91.91,0,0,0-.79.57,10.4,10.4,0,0,0-.32,3.36v7.06a7.74,7.74,0,0,0,.35,2.31,4,4,0,0,0,.76,1.54Z"/></g></g><g id="adventurer" class="cls-2"><g class="cls-2"><path class="cls-3" d="M347.07,48.59a3.38,3.38,0,0,1-1.77-.45A2.46,2.46,0,0,1,344.23,47a3.32,3.32,0,0,1-.32-1.35A4.13,4.13,0,0,1,345.32,43q1.41-1.47,7.29-4.21l0-2.79a14.38,14.38,0,0,0-.29-3.35,1.48,1.48,0,0,0-1.6-1.16,1.41,1.41,0,0,0-1.16.48,2.84,2.84,0,0,0-.4,1.78c0,.22,0,.44,0,.65s0,.4,0,.59a2.62,2.62,0,0,1-.75,2.23,3.49,3.49,0,0,1-2.07.54,2.45,2.45,0,0,1-1.51-.48,1.89,1.89,0,0,1-.65-1.6,3.48,3.48,0,0,1,.91-1.91,7,7,0,0,1,2.74-2,9.11,9.11,0,0,1,3.69-.81,8.13,8.13,0,0,1,5,1.44q1.94,1.44,1.95,4.86l0,7.08c0,1.27.59,1.91,1.68,1.91a3.26,3.26,0,0,0,1.66-.48l.19.34-4.95,2.11a3.43,3.43,0,0,1-1.41.3A2.79,2.79,0,0,1,354.1,48a3.73,3.73,0,0,1-1.24-1.42A10.55,10.55,0,0,1,347.07,48.59Zm5.16-3.05h.4l0-6.22c-2.16,1.27-3.23,2.49-3.23,3.64a2.27,2.27,0,0,0,.86,1.91A3.06,3.06,0,0,0,352.23,45.54Z"/><path class="cls-3" d="M373.58,47.62a6.82,6.82,0,0,1-3.58,1,7.86,7.86,0,0,1-4.21-1.17,7,7,0,0,1-2.74-3.24,9.8,9.8,0,0,1-.75-3.72,12.25,12.25,0,0,1,.38-2.95,8.8,8.8,0,0,1,3.86-5.37,7.55,7.55,0,0,1,4-1.16,8.47,8.47,0,0,1,3.06.52v-3a3.28,3.28,0,0,0-.25-1.15,3,3,0,0,0-.79-1.19,2.33,2.33,0,0,0-1.51-.55l7.51-3a1,1,0,0,1,.95,1.05V44.24a1.71,1.71,0,0,0,.31.92.85.85,0,0,0,.74.43,4.88,4.88,0,0,0,1.37-.26l.13.26-7.51,3C374,48.6,373.63,48.28,373.58,47.62Zm0-.71V32.12a6.71,6.71,0,0,0-2.5-.5,2.66,2.66,0,0,0-2.93,2.27,11.18,11.18,0,0,0-.23,2.29,18.07,18.07,0,0,0,.74,4.8q1.74,6,4.34,6A2.38,2.38,0,0,0,373.58,46.91Z"/><path class="cls-3" d="M391.75,48.54a.54.54,0,0,1-.34-.18,1,1,0,0,1-.25-.34L386,37.19c-1-2.13-2.58-3.2-4.59-3.2l7.49-3a.89.89,0,0,1,.58.14q.14.14,6.1,12.57A9.93,9.93,0,0,0,397,39.26a6.34,6.34,0,0,0-1-3.86,7,7,0,0,0-2.35-2.06L400,31A4.22,4.22,0,0,1,401.08,34a10,10,0,0,1-2.24,6.18l-6.35,8.3Z"/><path class="cls-3" d="M411.64,48.6a8.81,8.81,0,0,1-8.82-8.79A8.81,8.81,0,0,1,411.64,31c2.57,0,4.38.77,5.41,2.32a4.37,4.37,0,0,1,.85,2.37,2.58,2.58,0,0,1-.54,1.58l-8.54,2.29c1.12,2.6,2.41,4.32,3.85,5.18A7.44,7.44,0,0,0,416,46a4.26,4.26,0,0,0,2.17-.63.11.11,0,0,1,.08.1.36.36,0,0,1-.08.17A8.48,8.48,0,0,1,411.64,48.6Zm-3-9.5,3-.81a3.49,3.49,0,0,0,1-2.84A7,7,0,0,0,412.1,33a1.76,1.76,0,0,0-1.74-1.3c-1.8,0-2.7,1-2.7,3A11.6,11.6,0,0,0,408.64,39.1Z"/><path class="cls-3" d="M434.87,48.14a1.06,1.06,0,0,1-.76-.3,1,1,0,0,1-.32-.75V37.23c0-2.08-.22-3.37-.6-3.89a1.54,1.54,0,0,0-1.2-.79,1.57,1.57,0,0,0-.76.2,6.25,6.25,0,0,0-3.34,5.86V44.2a8.47,8.47,0,0,0,.37,2.24,3.65,3.65,0,0,0,.73,1.44v.26h-5.93a1.08,1.08,0,0,1-.77-.3,1,1,0,0,1-.31-.75V36.92a3.76,3.76,0,0,0-.23-1.13,2.92,2.92,0,0,0-.8-1.21,2.37,2.37,0,0,0-1.51-.58l7.5-3a1,1,0,0,1,.95,1.05v3.11A6.67,6.67,0,0,1,434.44,31a6,6,0,0,1,3.46,1.31c1.2.87,1.81,2.46,1.81,4.78v7a7.77,7.77,0,0,0,.33,2.26,3.81,3.81,0,0,0,.75,1.5v.26Z"/><path class="cls-3" d="M445.68,47.43a3.78,3.78,0,0,1-1-2.58V34h-2.74v-.54a14,14,0,0,0,4.71-3.18,15.06,15.06,0,0,0,3.35-4.4l.66.37v2.87A4.82,4.82,0,0,0,451.69,32a3.16,3.16,0,0,0,2.57,1.42h.38V34h-4V44.08c0,1.82.73,2.73,2.18,2.73a6,6,0,0,0,3.09-1.22v.55a15.15,15.15,0,0,1-2.68,1.67,9.17,9.17,0,0,1-4.07.79A4.41,4.41,0,0,1,445.68,47.43Z"/><path class="cls-3" d="M469.84,47.57v-3a6.25,6.25,0,0,1-6.29,4.09,5.92,5.92,0,0,1-3.44-1.3c-1.19-.86-1.79-2.46-1.79-4.78V37a3.52,3.52,0,0,0-.24-1.13,2.93,2.93,0,0,0-.79-1.2,2.27,2.27,0,0,0-1.52-.57l7.49-3a1,1,0,0,1,.95,1V42.82A5.8,5.8,0,0,0,465,46c.5.75,1,1.13,1.48,1.13a2.89,2.89,0,0,0,1.71-.83,6.57,6.57,0,0,0,1.69-3.21V37a3.52,3.52,0,0,0-.24-1.13,3.17,3.17,0,0,0-.8-1.2,2.27,2.27,0,0,0-1.51-.57l7.48-3a1,1,0,0,1,1,1V44.25a1.66,1.66,0,0,0,.3.9.85.85,0,0,0,.74.46c.06,0,.52-.09,1.37-.26l.12.26-7.47,3A1,1,0,0,1,469.84,47.57Z"/><path class="cls-3" d="M488.35,48.14h-5.9a1.06,1.06,0,0,1-.76-.3,1,1,0,0,1-.31-.75V37a3.58,3.58,0,0,0-.24-1.12,3.06,3.06,0,0,0-.79-1.21,2.28,2.28,0,0,0-1.52-.55l7.49-3c.6,0,.92.35.95,1v1.65q1.88-2.68,3.84-2.68a3.47,3.47,0,0,1,2.65.86,3.27,3.27,0,0,1,.78,2.3,3.59,3.59,0,0,1-.92,2.72,2.92,2.92,0,0,1-2,.86,2.57,2.57,0,0,1-1.55-.53,2.19,2.19,0,0,1-.71-1.87c0-1.29-.32-1.94-1-1.94a.88.88,0,0,0-.76.56,9.83,9.83,0,0,0-.32,3.26v6.85a7.44,7.44,0,0,0,.34,2.25,3.84,3.84,0,0,0,.74,1.49Z"/><path class="cls-3" d="M505.14,48.6a8.81,8.81,0,0,1-8.81-8.79A8.81,8.81,0,0,1,505.14,31c2.58,0,4.38.77,5.42,2.32a4.46,4.46,0,0,1,.85,2.37,2.53,2.53,0,0,1-.55,1.58l-8.54,2.29c1.13,2.6,2.41,4.32,3.85,5.18A7.44,7.44,0,0,0,509.54,46a4.3,4.3,0,0,0,2.18-.63.11.11,0,0,1,.08.1.36.36,0,0,1-.08.17A8.51,8.51,0,0,1,505.14,48.6Zm-3-9.5,3-.81a3.46,3.46,0,0,0,1-2.84,7.15,7.15,0,0,0-.48-2.47,1.76,1.76,0,0,0-1.74-1.3c-1.81,0-2.71,1-2.71,3A11.79,11.79,0,0,0,502.14,39.1Z"/><path class="cls-3" d="M522.45,48.14h-5.9a1.08,1.08,0,0,1-.77-.3,1,1,0,0,1-.31-.75V37a3.82,3.82,0,0,0-.23-1.12,3.06,3.06,0,0,0-.79-1.21,2.29,2.29,0,0,0-1.53-.55l7.5-3c.6,0,.92.35,1,1v1.65q1.86-2.68,3.83-2.68a3.45,3.45,0,0,1,2.65.86,3.27,3.27,0,0,1,.78,2.3,3.59,3.59,0,0,1-.91,2.72,2.94,2.94,0,0,1-2,.86,2.55,2.55,0,0,1-1.55-.53,2.19,2.19,0,0,1-.71-1.87c0-1.29-.33-1.94-1-1.94a.89.89,0,0,0-.77.56,10,10,0,0,0-.31,3.26v6.85a7.44,7.44,0,0,0,.34,2.25,3.7,3.7,0,0,0,.74,1.49Z"/></g></g></g><g id="Group_13" data-name="Group 13" class="cls-1"><g id="designer-2" class="cls-2"><g class="cls-2"><path class="cls-4" d="M226.76,119.53a14.69,14.69,0,0,1-7.69,2.11,16.87,16.87,0,0,1-9-2.51,15,15,0,0,1-5.89-7,20.81,20.81,0,0,1-1.63-8,25.34,25.34,0,0,1,.83-6.34,18.93,18.93,0,0,1,8.28-11.54,16.18,16.18,0,0,1,8.57-2.5,18.34,18.34,0,0,1,6.58,1.11V78.34a7.43,7.43,0,0,0-.52-2.48,6.32,6.32,0,0,0-1.71-2.55,4.8,4.8,0,0,0-3.24-1.17l16.15-6.52a2.11,2.11,0,0,1,2.05,2.25v44.38a3.7,3.7,0,0,0,.66,2,1.79,1.79,0,0,0,1.59.94,10.26,10.26,0,0,0,2.95-.56l.27.56-16.15,6.48C227.56,121.64,226.88,120.94,226.76,119.53Zm0-1.53V86.18a14.22,14.22,0,0,0-5.37-1.08q-5.31,0-6.31,4.89a24.3,24.3,0,0,0-.48,4.92,38.66,38.66,0,0,0,1.59,10.33q3.75,12.93,9.33,12.93A4.41,4.41,0,0,0,226.76,118Z"/><path class="cls-4" d="M266.63,121.64A18.94,18.94,0,0,1,253.22,89.3a18.25,18.25,0,0,1,13.41-5.55q8.33,0,11.65,5a9.4,9.4,0,0,1,1.84,5.1,5.59,5.59,0,0,1-1.18,3.4l-18.37,4.92q3.63,8.39,8.28,11.14c3.1,1.84,5.51,2.76,7.25,2.76a9.24,9.24,0,0,0,4.68-1.35.22.22,0,0,1,.17.21.79.79,0,0,1-.17.38A18.3,18.3,0,0,1,266.63,121.64Zm-6.45-20.45,6.42-1.74c1.38-1.11,2.08-3.14,2.08-6.1a15.33,15.33,0,0,0-1-5.32,3.78,3.78,0,0,0-3.75-2.79q-5.82,0-5.82,6.34A25.12,25.12,0,0,0,260.18,101.19Z"/><path class="cls-4" d="M290.52,120.79q-4.44-.92-4.44-2.27,0-.1,1.91-9.08l.69-.11a43.42,43.42,0,0,0,7.35,8q3.47,2.77,6.07,2.78a5.08,5.08,0,0,0,3.33-1,3.9,3.9,0,0,0,1.24-3.2,4.81,4.81,0,0,0-2.51-4,34.62,34.62,0,0,0-5.91-3.1,37.4,37.4,0,0,1-8.93-5.26q-4.06-3.24-4.18-9.31,0-4.26,4.08-7.29t11-3q12,0,12.13,4.2l-.27,7.9-.94,0c-.83-2.41-2.69-4.76-5.56-7.08s-5.63-3.46-8.24-3.46a5.62,5.62,0,0,0-3.12.74,2.49,2.49,0,0,0-1.11,2.21,4.18,4.18,0,0,0,2.26,3.53,35,35,0,0,0,5.86,2.91,45,45,0,0,1,9.76,5.29q4.65,3.31,4.66,9.66,0,5.43-5.58,8.71a22.12,22.12,0,0,1-11.34,3.28A40.72,40.72,0,0,1,290.52,120.79Z"/><path class="cls-4" d="M338.81,120.64h-12.9a2.3,2.3,0,0,1-1.64-.65,2.11,2.11,0,0,1-.68-1.61V96.51a8,8,0,0,0-.5-2.45,6.34,6.34,0,0,0-1.72-2.6,5,5,0,0,0-3.26-1.23l16.16-6.48c1.29,0,2,.75,2,2.25v25.86a13.87,13.87,0,0,0,2.5,8.12Zm-9.15-41.81A8.64,8.64,0,0,1,324,76.94a5.84,5.84,0,0,1-2.28-4.67,5.94,5.94,0,0,1,2.58-4.75,9.55,9.55,0,0,1,5.94-1.9,8.62,8.62,0,0,1,5.72,1.9,5.92,5.92,0,0,1,2.29,4.72,5.86,5.86,0,0,1-2.6,4.68A9.63,9.63,0,0,1,329.66,78.83Z"/><path class="cls-4" d="M348.05,139c-2.67-2.12-4-4.49-4-7.13A9.57,9.57,0,0,1,347,125a22.15,22.15,0,0,1,7-4.79h-9.15l-.45-.83,17.26-8.66a19.71,19.71,0,0,1-12.51-3.94q-5.07-3.93-5.06-9.51c0-3.73,1.68-6.9,5.06-9.54a19.24,19.24,0,0,1,12.2-4,21.64,21.64,0,0,1,4.44.45,60.53,60.53,0,0,1,5.65-4.32,11,11,0,0,1,6-2.34c3.9.07,5.86,1.48,5.86,4.23a4.07,4.07,0,0,1-.14,1,3.75,3.75,0,0,1-1.58,2.46,3.85,3.85,0,0,1-1.79.63,4,4,0,0,1-2.21-.8,10.33,10.33,0,0,0-5.79-1.84,7.32,7.32,0,0,0-3.44.66,12.29,12.29,0,0,0-1.07.66q11.34,3.92,11.34,12.66a11.35,11.35,0,0,1-4.11,8.71,18.92,18.92,0,0,1-10.42,4.56l-5.2,2.64h10.09q7.8,0,11.07,2.49a8,8,0,0,1,3.28,6.76,13.32,13.32,0,0,1-1.32,5.48,26,26,0,0,1-7.8,9.85q-5.75,4.4-14.28,4.4Q352.06,142.13,348.05,139Zm25.52-2.45a5.52,5.52,0,0,0,1.61-3.26,7.8,7.8,0,0,0-.24-1.87q-1.08-4.08-5.55-7.55-4.75-3.64-12.31-3.65-3.91.52-3.92,2.78,0,3.74,6.28,9.91,5.65,5.55,10.64,5.55A4.61,4.61,0,0,0,373.57,136.51Zm-6.73-29.46a7.68,7.68,0,0,0,.71-3.54,23.51,23.51,0,0,0-2.22-9.29,19.35,19.35,0,0,0-4.12-6.35q-2.06-1.8-3.33-1.8a2.25,2.25,0,0,0-2.1,1.35,7.59,7.59,0,0,0-.71,3.5,23.92,23.92,0,0,0,2.22,9.33,19.34,19.34,0,0,0,4.11,6.34c1.35,1.21,2.46,1.81,3.34,1.81A2.25,2.25,0,0,0,366.84,107.05Z"/><path class="cls-4" d="M418.79,120.64a2.3,2.3,0,0,1-1.65-.65,2.11,2.11,0,0,1-.67-1.61V97.17c-.05-4.46-.48-7.26-1.3-8.38a3.35,3.35,0,0,0-2.59-1.68,3.29,3.29,0,0,0-1.62.42q-7.18,4-7.18,12.62v12a16.87,16.87,0,0,0,.78,4.8,7.78,7.78,0,0,0,1.58,3.1v.56H393.38a2.3,2.3,0,0,1-1.65-.65,2.11,2.11,0,0,1-.67-1.61V96.51a7.8,7.8,0,0,0-.51-2.45,6.22,6.22,0,0,0-1.71-2.6,5,5,0,0,0-3.26-1.23l16.15-6.48a2.1,2.1,0,0,1,2,2.25v6.69q4.1-8.94,14.07-8.94a12.81,12.81,0,0,1,7.46,2.81q3.88,2.81,3.88,10.29V112a16.21,16.21,0,0,0,.73,4.86,8.13,8.13,0,0,0,1.59,3.22v.56Z"/><path class="cls-4" d="M454,121.64A18.94,18.94,0,0,1,440.56,89.3,18.28,18.28,0,0,1,454,83.75q8.32,0,11.65,5a9.46,9.46,0,0,1,1.83,5.1,5.58,5.58,0,0,1-1.17,3.4l-18.38,4.92q3.64,8.39,8.29,11.14c3.09,1.84,5.51,2.76,7.24,2.76a9.24,9.24,0,0,0,4.68-1.35q.18.06.18.21a.74.74,0,0,1-.18.38A18.28,18.28,0,0,1,454,121.64Zm-6.45-20.45,6.41-1.74q2.08-1.67,2.08-6.1A15.11,15.11,0,0,0,455,88a3.77,3.77,0,0,0-3.74-2.79q-5.82,0-5.82,6.34A25.12,25.12,0,0,0,447.53,101.19Z"/><path class="cls-4" d="M491.21,120.64H478.52a2.3,2.3,0,0,1-1.64-.65,2.11,2.11,0,0,1-.68-1.61V96.58a7.94,7.94,0,0,0-.5-2.41,6.33,6.33,0,0,0-1.7-2.6,4.87,4.87,0,0,0-3.28-1.2l16.12-6.48c1.3,0,2,.75,2.05,2.25v3.54q4-5.76,8.25-5.76c2.68,0,4.58.62,5.7,1.84a7.08,7.08,0,0,1,1.68,5c0,2.66-.65,4.6-2,5.84a6.25,6.25,0,0,1-4.37,1.85,5.5,5.5,0,0,1-3.33-1.12c-1-.75-1.52-2.1-1.52-4,0-2.78-.71-4.16-2.12-4.16a1.9,1.9,0,0,0-1.65,1.19c-.42.8-.65,3.14-.67,7V112a16,16,0,0,0,.73,4.83,8,8,0,0,0,1.59,3.21Z"/></g></g><g id="developer-2" class="cls-2"><g class="cls-2"><path class="cls-4" d="M14.51,83a8.53,8.53,0,0,1-4.44,1.22,9.81,9.81,0,0,1-5.23-1.46,8.64,8.64,0,0,1-3.4-4A12.15,12.15,0,0,1,.5,74.11,14.87,14.87,0,0,1,1,70.44a10.94,10.94,0,0,1,4.79-6.66,9.41,9.41,0,0,1,4.94-1.45,10.55,10.55,0,0,1,3.8.65V59.21a4.31,4.31,0,0,0-.3-1.43,3.76,3.76,0,0,0-1-1.47,2.78,2.78,0,0,0-1.87-.68l9.33-3.77a1.22,1.22,0,0,1,1.18,1.31V78.79a2.17,2.17,0,0,0,.38,1.14,1.05,1.05,0,0,0,.92.54,5.65,5.65,0,0,0,1.7-.32l.16.32L15.7,84.22C15,84.22,14.58,83.81,14.51,83Zm0-.89V63.74a8.09,8.09,0,0,0-3.1-.62,3.29,3.29,0,0,0-3.64,2.82,13.61,13.61,0,0,0-.28,2.84,22.06,22.06,0,0,0,.92,6q2.16,7.47,5.38,7.46A2.55,2.55,0,0,0,14.51,82.11Z"/><path class="cls-4" d="M37.54,84.22a10.95,10.95,0,0,1-7.75-18.68,10.54,10.54,0,0,1,7.75-3.21c3.2,0,5.44,1,6.72,2.89a5.43,5.43,0,0,1,1.06,2.94,3.14,3.14,0,0,1-.68,2L34,73q2.1,4.84,4.79,6.43A9.21,9.21,0,0,0,43,81a5.36,5.36,0,0,0,2.71-.78.14.14,0,0,1,.09.12.42.42,0,0,1-.09.22A10.56,10.56,0,0,1,37.54,84.22ZM33.81,72.41l3.71-1c.8-.64,1.2-1.81,1.2-3.52a8.79,8.79,0,0,0-.6-3.07A2.17,2.17,0,0,0,36,63.2q-3.37,0-3.37,3.66A14.65,14.65,0,0,0,33.81,72.41Z"/><path class="cls-4" d="M58.26,84.14a.78.78,0,0,1-.43-.22,1.42,1.42,0,0,1-.31-.42L51.07,70c-1.29-2.65-3.2-4-5.71-4l9.31-3.73a1.11,1.11,0,0,1,.72.17q.18.18,7.59,15.63A12.3,12.3,0,0,0,64.8,72.6a7.9,7.9,0,0,0-1.24-4.79,8.71,8.71,0,0,0-2.92-2.55l7.83-2.93a5.28,5.28,0,0,1,1.38,3.79,12.52,12.52,0,0,1-2.78,7.69L59.18,84.12Z"/><path class="cls-4" d="M83,84.22a10.95,10.95,0,0,1-7.75-18.68A10.55,10.55,0,0,1,83,62.33c3.2,0,5.45,1,6.73,2.89a5.51,5.51,0,0,1,1.06,2.94,3.2,3.2,0,0,1-.68,2L79.46,73q2.1,4.84,4.78,6.43A9.23,9.23,0,0,0,88.43,81a5.36,5.36,0,0,0,2.7-.78c.07,0,.1.07.1.12a.38.38,0,0,1-.1.22A10.55,10.55,0,0,1,83,84.22ZM79.24,72.41l3.7-1c.8-.64,1.2-1.81,1.2-3.52a8.79,8.79,0,0,0-.6-3.07,2.17,2.17,0,0,0-2.16-1.61Q78,63.2,78,66.86A14.46,14.46,0,0,0,79.24,72.41Z"/><path class="cls-4" d="M96.49,83.64a1.36,1.36,0,0,1-.95-.37,1.24,1.24,0,0,1-.39-.94V59.23a4.46,4.46,0,0,0-.3-1.41,3.72,3.72,0,0,0-1-1.5A2.82,2.82,0,0,0,92,55.63l9.33-3.77a1.23,1.23,0,0,1,1.2,1.31V78.65a9.4,9.4,0,0,0,.42,2.8,4.79,4.79,0,0,0,.92,1.87v.32Z"/><path class="cls-4" d="M110.42,81a10.6,10.6,0,0,1,0-15.45,11.71,11.71,0,0,1,16.11,0,10.6,10.6,0,0,1,0,15.45,11.71,11.71,0,0,1-16.11,0Zm11.73,1a8.2,8.2,0,0,0,.65-3.58,24.58,24.58,0,0,0-1.18-7,19,19,0,0,0-2.86-6c-1-1.26-1.91-1.89-2.63-1.89-.5,0-1,.34-1.36,1a8,8,0,0,0-.64,3.6,24.87,24.87,0,0,0,1.18,7,18.79,18.79,0,0,0,2.87,6c1,1.26,1.9,1.9,2.62,1.9C121.3,83,121.76,82.69,122.15,82Z"/><path class="cls-4" d="M134.65,94.75v-27a2.17,2.17,0,0,0-.35-1.1,1,1,0,0,0-.91-.58c-.08,0-.66.11-1.74.34l-.16-.34,9.33-3.75c.73,0,1.13.42,1.18,1.25a8.49,8.49,0,0,1,4.46-1.23,9.07,9.07,0,0,1,7,2.75A10.58,10.58,0,0,1,156,72.52a12.06,12.06,0,0,1-3,8.32,9.43,9.43,0,0,1-7.31,3.38,10.57,10.57,0,0,1-3.7-.64v5.1a4.46,4.46,0,0,0,.3,1.41,3.72,3.72,0,0,0,1,1.5,2.8,2.8,0,0,0,1.87.71l-9.31,3.75A1.22,1.22,0,0,1,134.65,94.75Zm14.12-14.14a14.29,14.29,0,0,0,.26-2.76,23.45,23.45,0,0,0-.91-6q-2.18-7.45-5.38-7.46a2.74,2.74,0,0,0-.74.1V82.82a7.82,7.82,0,0,0,3.14.62A3.31,3.31,0,0,0,148.77,80.61Z"/><path class="cls-4" d="M169.37,84.22a10.94,10.94,0,0,1-7.75-18.68,10.54,10.54,0,0,1,7.75-3.21c3.2,0,5.44,1,6.72,2.89a5.43,5.43,0,0,1,1.06,2.94,3.14,3.14,0,0,1-.68,2L165.86,73q2.1,4.84,4.79,6.43A9.17,9.17,0,0,0,174.83,81a5.3,5.3,0,0,0,2.7-.78c.07,0,.1.07.1.12a.38.38,0,0,1-.1.22A10.53,10.53,0,0,1,169.37,84.22Zm-3.73-11.81,3.71-1c.8-.64,1.2-1.81,1.2-3.52a8.79,8.79,0,0,0-.6-3.07,2.19,2.19,0,0,0-2.17-1.61q-3.36,0-3.36,3.66A14.65,14.65,0,0,0,165.64,72.41Z"/><path class="cls-4" d="M190.87,83.64h-7.33a1.36,1.36,0,0,1-.95-.37,1.24,1.24,0,0,1-.39-.94V69.74a4.65,4.65,0,0,0-.29-1.39,3.69,3.69,0,0,0-1-1.5,2.82,2.82,0,0,0-1.89-.69l9.3-3.74c.75,0,1.14.43,1.19,1.3v2q2.31-3.33,4.76-3.33a4.28,4.28,0,0,1,3.29,1.07,4,4,0,0,1,1,2.86,4.43,4.43,0,0,1-1.14,3.37,3.58,3.58,0,0,1-2.52,1.07,3.11,3.11,0,0,1-1.92-.65,2.71,2.71,0,0,1-.88-2.33c0-1.6-.41-2.4-1.22-2.4a1.08,1.08,0,0,0-1,.69,12.17,12.17,0,0,0-.39,4v8.51a9.34,9.34,0,0,0,.42,2.79,4.67,4.67,0,0,0,.92,1.86Z"/></g></g><g id="engineer-2" class="cls-2"><g class="cls-2"><path class="cls-4" d="M514.18,153.05a7.74,7.74,0,1,1,0-15.48q3.39,0,4.76,2a3.84,3.84,0,0,1,.75,2.08,2.28,2.28,0,0,1-.48,1.39l-7.51,2a9.52,9.52,0,0,0,3.38,4.55,6.59,6.59,0,0,0,3,1.13,3.79,3.79,0,0,0,1.92-.56.11.11,0,0,1,.07.09.4.4,0,0,1-.07.16A7.51,7.51,0,0,1,514.18,153.05Zm-2.64-8.36,2.62-.71a3,3,0,0,0,.85-2.49,6.26,6.26,0,0,0-.42-2.17,1.55,1.55,0,0,0-1.53-1.14c-1.59,0-2.38.86-2.38,2.59A10.35,10.35,0,0,0,511.54,144.69Z"/><path class="cls-4" d="M534.6,152.64a.94.94,0,0,1-.68-.27.86.86,0,0,1-.27-.65v-8.67a7.26,7.26,0,0,0-.53-3.42,1.22,1.22,0,0,0-1.72-.52,5.51,5.51,0,0,0-2.94,5.16v4.91a7.24,7.24,0,0,0,.32,2,3.27,3.27,0,0,0,.65,1.27v.23h-5.21a.94.94,0,0,1-.68-.27.86.86,0,0,1-.27-.65v-8.94a3.19,3.19,0,0,0-.21-1,2.52,2.52,0,0,0-.7-1.06,2,2,0,0,0-1.33-.5l6.6-2.65a.85.85,0,0,1,.83.92v2.73a5.87,5.87,0,0,1,5.75-3.65,5.21,5.21,0,0,1,3,1.15c1.06.76,1.58,2.16,1.58,4.2v6.19a6.6,6.6,0,0,0,.3,2,3.47,3.47,0,0,0,.65,1.32v.23Z"/><path class="cls-4" d="M543.13,160.12a3.7,3.7,0,0,1-1.64-2.91,3.87,3.87,0,0,1,1.21-2.8,8.85,8.85,0,0,1,2.84-2H541.8l-.18-.34,7-3.54a8,8,0,0,1-5.11-1.61,4.77,4.77,0,0,1-2.07-3.88,4.82,4.82,0,0,1,2.07-3.9,7.89,7.89,0,0,1,5-1.61,9.06,9.06,0,0,1,1.82.18,26.25,26.25,0,0,1,2.31-1.76,4.48,4.48,0,0,1,2.45-1c1.59,0,2.39.61,2.39,1.73a1.59,1.59,0,0,1-.06.43,1.54,1.54,0,0,1-.64,1,1.29,1.29,0,0,1-1.64-.07,4.18,4.18,0,0,0-2.36-.75,3,3,0,0,0-1.41.27,3.32,3.32,0,0,0-.43.27c3.08,1.07,4.63,2.79,4.63,5.17a4.64,4.64,0,0,1-1.68,3.56,7.85,7.85,0,0,1-4.26,1.86l-2.12,1.08h4.12c2.12,0,3.63.34,4.52,1a3.27,3.27,0,0,1,1.34,2.76,5.38,5.38,0,0,1-.54,2.23,10.62,10.62,0,0,1-3.18,4,9.32,9.32,0,0,1-5.84,1.8A7.68,7.68,0,0,1,543.13,160.12Zm10.42-1a2.25,2.25,0,0,0,.66-1.33,2.89,2.89,0,0,0-.1-.76,5.85,5.85,0,0,0-2.27-3.09,8,8,0,0,0-5-1.49c-1.07.14-1.6.52-1.6,1.13q0,1.53,2.56,4,2.31,2.26,4.35,2.27A1.87,1.87,0,0,0,553.55,159.12Zm-2.75-12a3,3,0,0,0,.29-1.44,9.62,9.62,0,0,0-.9-3.79,8,8,0,0,0-1.69-2.6,2.33,2.33,0,0,0-1.36-.73.91.91,0,0,0-.85.55,3,3,0,0,0-.29,1.43,9.87,9.87,0,0,0,.9,3.81,8,8,0,0,0,1.68,2.59,2.35,2.35,0,0,0,1.37.74A.92.92,0,0,0,550.8,147.08Z"/><path class="cls-4" d="M566.91,152.64h-5.27a.92.92,0,0,1-.67-.27.87.87,0,0,1-.28-.65v-8.94a3.44,3.44,0,0,0-.2-1,2.62,2.62,0,0,0-.7-1.06,2,2,0,0,0-1.33-.5l6.59-2.65c.53,0,.81.31.84.92v10.56a5.67,5.67,0,0,0,1,3.32Zm-3.74-17.08a3.55,3.55,0,0,1-2.32-.77,2.39,2.39,0,0,1-.93-1.91,2.42,2.42,0,0,1,1.05-1.94,3.88,3.88,0,0,1,2.43-.78,3.51,3.51,0,0,1,2.33.78,2.35,2.35,0,0,1-.12,3.84A3.93,3.93,0,0,1,563.17,135.56Z"/><path class="cls-4" d="M582,152.64a.94.94,0,0,1-.68-.27.86.86,0,0,1-.27-.65v-8.67a7.26,7.26,0,0,0-.53-3.42,1.22,1.22,0,0,0-1.72-.52,5.5,5.5,0,0,0-2.93,5.16v4.91a6.87,6.87,0,0,0,.31,2,3.27,3.27,0,0,0,.65,1.27v.23H571.6a.94.94,0,0,1-.68-.27.86.86,0,0,1-.27-.65v-8.94a3.19,3.19,0,0,0-.21-1,2.52,2.52,0,0,0-.7-1.06,2,2,0,0,0-1.33-.5l6.6-2.65a.86.86,0,0,1,.84.92v2.73a5.85,5.85,0,0,1,5.74-3.65,5.21,5.21,0,0,1,3,1.15c1.06.76,1.58,2.16,1.58,4.2v6.19a6.6,6.6,0,0,0,.3,2,3.47,3.47,0,0,0,.65,1.32v.23Z"/><path class="cls-4" d="M596.35,153.05a7.74,7.74,0,1,1,0-15.48c2.27,0,3.85.68,4.76,2a3.84,3.84,0,0,1,.75,2.08,2.28,2.28,0,0,1-.48,1.39l-7.51,2q1.49,3.42,3.39,4.55a6.52,6.52,0,0,0,3,1.13,3.79,3.79,0,0,0,1.92-.56.11.11,0,0,1,.07.09.4.4,0,0,1-.07.16A7.51,7.51,0,0,1,596.35,153.05Zm-2.64-8.36,2.62-.71a3,3,0,0,0,.85-2.49,6.26,6.26,0,0,0-.42-2.17,1.54,1.54,0,0,0-1.53-1.14c-1.59,0-2.38.86-2.38,2.59A10.35,10.35,0,0,0,593.71,144.69Z"/><path class="cls-4" d="M611.32,153.05a7.74,7.74,0,1,1,0-15.48c2.26,0,3.85.68,4.75,2a3.84,3.84,0,0,1,.75,2.08,2.28,2.28,0,0,1-.48,1.39l-7.5,2a9.52,9.52,0,0,0,3.38,4.55,6.55,6.55,0,0,0,3,1.13,3.75,3.75,0,0,0,1.91-.56.09.09,0,0,1,.07.09.3.3,0,0,1-.07.16A7.47,7.47,0,0,1,611.32,153.05Zm-2.64-8.36,2.62-.71a3,3,0,0,0,.85-2.49,6.26,6.26,0,0,0-.42-2.17,1.55,1.55,0,0,0-1.53-1.14c-1.59,0-2.38.86-2.38,2.59A10.35,10.35,0,0,0,608.68,144.69Z"/><path class="cls-4" d="M626.52,152.64h-5.18a.92.92,0,0,1-.67-.27.87.87,0,0,1-.28-.65v-8.91a3.44,3.44,0,0,0-.2-1,2.62,2.62,0,0,0-.7-1.06,2,2,0,0,0-1.33-.49l6.58-2.64c.53,0,.81.3.84.92V140c1.09-1.57,2.21-2.35,3.37-2.35a3.06,3.06,0,0,1,2.33.75,2.93,2.93,0,0,1,.68,2,3.11,3.11,0,0,1-.81,2.38,2.51,2.51,0,0,1-1.78.76,2.23,2.23,0,0,1-1.36-.46,2,2,0,0,1-.62-1.65c0-1.13-.29-1.7-.87-1.7a.77.77,0,0,0-.67.49,8.66,8.66,0,0,0-.27,2.87v6a6.59,6.59,0,0,0,.29,2,3.41,3.41,0,0,0,.65,1.31Z"/></g></g><g id="interior-2" class="cls-2"><g class="cls-2"><path class="cls-4" d="M116.8,177.64H109a1.37,1.37,0,0,1-1-.39,1.28,1.28,0,0,1-.41-1V163a5,5,0,0,0-.31-1.48,3.76,3.76,0,0,0-1-1.57,3,3,0,0,0-2-.75l9.78-3.92c.79,0,1.2.45,1.24,1.36v15.66a8.45,8.45,0,0,0,1.51,4.92Zm-5.54-25.33a5.23,5.23,0,0,1-3.44-1.14,3.5,3.5,0,0,1-1.39-2.82,3.61,3.61,0,0,1,1.57-2.88,5.76,5.76,0,0,1,3.6-1.15,5.22,5.22,0,0,1,3.46,1.15,3.47,3.47,0,0,1-.19,5.69A5.81,5.81,0,0,1,111.26,152.31Z"/><path class="cls-4" d="M139.14,177.64a1.37,1.37,0,0,1-1-.39,1.28,1.28,0,0,1-.41-1V163.42c0-2.7-.29-4.39-.79-5.07a2,2,0,0,0-1.57-1,2.13,2.13,0,0,0-1,.25,8.17,8.17,0,0,0-4.35,7.65v7.28a10.81,10.81,0,0,0,.47,2.91,4.82,4.82,0,0,0,1,1.88v.34h-7.73a1.37,1.37,0,0,1-1-.39,1.28,1.28,0,0,1-.41-1V163a4.65,4.65,0,0,0-.31-1.48,3.76,3.76,0,0,0-1-1.57,3,3,0,0,0-2-.75l9.78-3.92a1.26,1.26,0,0,1,1.24,1.36v4.05a8.67,8.67,0,0,1,8.53-5.41,7.73,7.73,0,0,1,4.51,1.7q2.35,1.69,2.35,6.23v9.18a10,10,0,0,0,.44,2.94,5,5,0,0,0,1,2v.34Z"/><path class="cls-4" d="M153.22,176.72a5,5,0,0,1-1.33-3.37V159.22h-3.57v-.71a18.43,18.43,0,0,0,6.13-4.14,19.92,19.92,0,0,0,4.37-5.73l.86.48v3.74a6.29,6.29,0,0,0,1.38,3.8,4.1,4.1,0,0,0,3.34,1.85h.51v.71h-5.23v13.12q0,3.57,2.83,3.57a7.78,7.78,0,0,0,4-1.59V175a19.13,19.13,0,0,1-3.49,2.18,11.94,11.94,0,0,1-5.3,1Q154.56,178.25,153.22,176.72Z"/><path class="cls-4" d="M178.45,178.25a11.48,11.48,0,1,1,0-22.95c3.36,0,5.71,1,7.05,3a5.74,5.74,0,0,1,1.12,3.09,3.31,3.31,0,0,1-.72,2.05l-11.13,3c1.47,3.39,3.15,5.64,5,6.76a9.67,9.67,0,0,0,4.39,1.66,5.6,5.6,0,0,0,2.83-.81.14.14,0,0,1,.11.12.46.46,0,0,1-.11.23A11.06,11.06,0,0,1,178.45,178.25Zm-3.91-12.39,3.89-1.05c.84-.67,1.26-1.91,1.26-3.7a9.23,9.23,0,0,0-.63-3.22,2.29,2.29,0,0,0-2.27-1.69q-3.53,0-3.53,3.84A15.31,15.31,0,0,0,174.54,165.86Z"/><path class="cls-4" d="M201,177.64h-7.69a1.37,1.37,0,0,1-1-.39,1.28,1.28,0,0,1-.41-1V163.06a4.85,4.85,0,0,0-.31-1.45,3.77,3.77,0,0,0-1-1.58,2.89,2.89,0,0,0-2-.72l9.76-3.93c.79,0,1.2.45,1.24,1.37v2.14q2.43-3.49,5-3.49a4.52,4.52,0,0,1,3.45,1.11,4.3,4.3,0,0,1,1,3,4.61,4.61,0,0,1-1.2,3.53,3.77,3.77,0,0,1-2.64,1.13,3.37,3.37,0,0,1-2-.68,2.89,2.89,0,0,1-.92-2.45c0-1.68-.43-2.52-1.28-2.52a1.14,1.14,0,0,0-1,.72,13.15,13.15,0,0,0-.41,4.25v8.93a10,10,0,0,0,.44,2.93,5,5,0,0,0,1,1.94Z"/><path class="cls-4" d="M223.38,177.64h-7.81a1.41,1.41,0,0,1-1-.39,1.31,1.31,0,0,1-.41-1V163a4.88,4.88,0,0,0-.3-1.48,3.76,3.76,0,0,0-1-1.57,3,3,0,0,0-2-.75l9.78-3.92c.78,0,1.2.45,1.24,1.36v15.66a8.38,8.38,0,0,0,1.51,4.92Zm-5.54-25.33a5.25,5.25,0,0,1-3.45-1.14,3.52,3.52,0,0,1-1.38-2.82,3.62,3.62,0,0,1,1.56-2.88,5.8,5.8,0,0,1,3.6-1.15,5.24,5.24,0,0,1,3.47,1.15,3.48,3.48,0,0,1-.19,5.69A5.83,5.83,0,0,1,217.84,152.31Z"/><path class="cls-4" d="M229.54,174.89a11.16,11.16,0,0,1,0-16.21,12.31,12.31,0,0,1,16.9,0,11.13,11.13,0,0,1,0,16.21,12.31,12.31,0,0,1-16.9,0Zm12.31,1a8.57,8.57,0,0,0,.68-3.75,25.75,25.75,0,0,0-1.24-7.4,19.67,19.67,0,0,0-3-6.24c-1.08-1.32-2-2-2.75-2-.54,0-1,.37-1.43,1.1a8.24,8.24,0,0,0-.67,3.78,25.62,25.62,0,0,0,1.24,7.37,19.67,19.67,0,0,0,3,6.24c1.08,1.32,2,2,2.75,2C241,177,241.43,176.64,241.85,175.91Z"/><path class="cls-4" d="M263.86,177.64h-7.68a1.38,1.38,0,0,1-1-.39,1.31,1.31,0,0,1-.41-1V163.06a4.55,4.55,0,0,0-.31-1.45,3.85,3.85,0,0,0-1-1.58,2.94,2.94,0,0,0-2-.72l9.76-3.93c.79,0,1.2.45,1.24,1.37v2.14c1.63-2.33,3.29-3.49,5-3.49a4.51,4.51,0,0,1,3.45,1.11,4.3,4.3,0,0,1,1,3,4.64,4.64,0,0,1-1.19,3.53,3.79,3.79,0,0,1-2.65,1.13,3.37,3.37,0,0,1-2-.68,2.89,2.89,0,0,1-.92-2.45c0-1.68-.43-2.52-1.28-2.52a1.14,1.14,0,0,0-1,.72,13.15,13.15,0,0,0-.41,4.25v8.93a10,10,0,0,0,.44,2.93,5,5,0,0,0,1,1.94Z"/></g></g><g id="researcher-2" class="cls-2"><g class="cls-2"><path class="cls-4" d="M200.55,262.14h-7.33a1.36,1.36,0,0,1-.95-.37,1.24,1.24,0,0,1-.39-.94V248.24a4.35,4.35,0,0,0-.29-1.39,3.59,3.59,0,0,0-1-1.5,2.82,2.82,0,0,0-1.89-.69l9.31-3.74c.75,0,1.14.43,1.18,1.3v2q2.32-3.33,4.76-3.33a4.32,4.32,0,0,1,3.3,1.07,4,4,0,0,1,1,2.86,4.43,4.43,0,0,1-1.14,3.37,3.58,3.58,0,0,1-2.52,1.07,3.14,3.14,0,0,1-1.93-.65,2.74,2.74,0,0,1-.88-2.33c0-1.6-.4-2.4-1.22-2.4a1.09,1.09,0,0,0-1,.69,12.17,12.17,0,0,0-.39,4v8.51a9.34,9.34,0,0,0,.42,2.79,4.81,4.81,0,0,0,.92,1.86Z"/><path class="cls-4" d="M221.41,262.72a10.95,10.95,0,1,1,0-21.89c3.21,0,5.45,1,6.73,2.89a5.43,5.43,0,0,1,1.06,2.94,3.2,3.2,0,0,1-.68,2l-10.61,2.85q2.1,4.84,4.78,6.43a9.23,9.23,0,0,0,4.19,1.59,5.33,5.33,0,0,0,2.7-.78c.07,0,.1.07.1.12a.38.38,0,0,1-.1.22A10.55,10.55,0,0,1,221.41,262.72Zm-3.72-11.81,3.7-1c.8-.64,1.2-1.81,1.2-3.52a8.79,8.79,0,0,0-.6-3.07,2.17,2.17,0,0,0-2.16-1.61q-3.36,0-3.36,3.66A14.46,14.46,0,0,0,217.69,250.91Z"/><path class="cls-4" d="M235.21,262.23c-1.71-.36-2.57-.8-2.57-1.31,0-.05.37-1.79,1.1-5.25l.4-.06a24.87,24.87,0,0,0,4.25,4.62,5.94,5.94,0,0,0,3.5,1.6,3,3,0,0,0,1.92-.58,2.28,2.28,0,0,0,.72-1.86,2.79,2.79,0,0,0-1.45-2.33,19.68,19.68,0,0,0-3.41-1.79,21.52,21.52,0,0,1-5.16-3,6.65,6.65,0,0,1-2.41-5.38,5.13,5.13,0,0,1,2.36-4.21,10.32,10.32,0,0,1,6.33-1.75c4.6,0,6.94.8,7,2.42l-.16,4.56-.54,0a9.44,9.44,0,0,0-3.22-4.08,7.68,7.68,0,0,0-4.75-2,3.15,3.15,0,0,0-1.8.43,1.42,1.42,0,0,0-.64,1.27,2.41,2.41,0,0,0,1.3,2,20.39,20.39,0,0,0,3.38,1.68,26.21,26.21,0,0,1,5.64,3.05,6.44,6.44,0,0,1,2.69,5.58,5.69,5.69,0,0,1-3.22,5,12.76,12.76,0,0,1-6.55,1.9A23.6,23.6,0,0,1,235.21,262.23Z"/><path class="cls-4" d="M262.61,262.72a10.95,10.95,0,1,1,0-21.89c3.2,0,5.45,1,6.73,2.89a5.51,5.51,0,0,1,1.06,2.94,3.2,3.2,0,0,1-.68,2l-10.61,2.85q2.1,4.84,4.78,6.43a9.23,9.23,0,0,0,4.19,1.59,5.36,5.36,0,0,0,2.7-.78c.07,0,.1.07.1.12a.38.38,0,0,1-.1.22A10.53,10.53,0,0,1,262.61,262.72Zm-3.72-11.81,3.7-1c.8-.64,1.2-1.81,1.2-3.52a8.79,8.79,0,0,0-.6-3.07A2.17,2.17,0,0,0,261,241.7q-3.36,0-3.36,3.66A14.46,14.46,0,0,0,258.89,250.91Z"/><path class="cls-4" d="M277.21,262.7a4.39,4.39,0,0,1-2.21-.55,3.17,3.17,0,0,1-1.33-1.44,4.1,4.1,0,0,1-.39-1.68,5.15,5.15,0,0,1,1.75-3.27q1.75-1.83,9.06-5.24l0-3.46a17.55,17.55,0,0,0-.36-4.16,1.82,1.82,0,0,0-2-1.44,1.76,1.76,0,0,0-1.45.59,3.57,3.57,0,0,0-.49,2.21c0,.28,0,.55,0,.81s0,.5,0,.73c0,1.4-.31,2.33-.93,2.77a4.31,4.31,0,0,1-2.57.67,3.07,3.07,0,0,1-1.89-.6,2.32,2.32,0,0,1-.8-2,4.28,4.28,0,0,1,1.12-2.37,8.61,8.61,0,0,1,3.42-2.44,11.17,11.17,0,0,1,4.57-1,10.08,10.08,0,0,1,6.21,1.8q2.4,1.78,2.42,6l0,8.79c0,1.59.73,2.38,2.08,2.38a4,4,0,0,0,2.06-.6l.24.42-6.14,2.63a4.29,4.29,0,0,1-1.76.38,3.48,3.48,0,0,1-2-.66,4.79,4.79,0,0,1-1.56-1.77A13.14,13.14,0,0,1,277.21,262.7Zm6.4-3.79.5,0,0-7.72q-4,2.37-4,4.52a2.85,2.85,0,0,0,1.07,2.38A3.89,3.89,0,0,0,283.61,258.91Z"/><path class="cls-4" d="M307.18,262.14h-7.33a1.35,1.35,0,0,1-1-.37,1.24,1.24,0,0,1-.39-.94V248.24a4.65,4.65,0,0,0-.29-1.39,3.69,3.69,0,0,0-1-1.5,2.85,2.85,0,0,0-1.9-.69l9.31-3.74c.75,0,1.14.43,1.18,1.3v2q2.32-3.33,4.77-3.33a4.29,4.29,0,0,1,3.29,1.07,4,4,0,0,1,1,2.86,4.43,4.43,0,0,1-1.14,3.37,3.58,3.58,0,0,1-2.52,1.07,3.09,3.09,0,0,1-1.92-.65,2.71,2.71,0,0,1-.88-2.33c0-1.6-.41-2.4-1.22-2.4a1.1,1.1,0,0,0-1,.69,12.78,12.78,0,0,0-.39,4v8.51a9.34,9.34,0,0,0,.42,2.79,4.8,4.8,0,0,0,.93,1.86Z"/><path class="cls-4" d="M328.08,262.72a10.95,10.95,0,1,1,0-21.89,8.5,8.5,0,0,1,5.76,2,5.74,5.74,0,0,1,2.32,4.38,2.75,2.75,0,0,1-.9,2.1,3.88,3.88,0,0,1-2.7.86,4.18,4.18,0,0,1-3.4-1.22,5.48,5.48,0,0,1-1-3.6,6.73,6.73,0,0,0-.48-2.94,1.44,1.44,0,0,0-1.29-.78c-2,0-3,1.49-3,4.48a14.4,14.4,0,0,0,1.82,6.91,14.59,14.59,0,0,0,4.42,4.93,8,8,0,0,0,4.05,1.65,4.37,4.37,0,0,0,2.62-.9l.16.1A10.73,10.73,0,0,1,328.08,262.72Z"/><path class="cls-4" d="M356.64,262.14a1.41,1.41,0,0,1-1-.37,1.25,1.25,0,0,1-.4-.94V249.36c0-2.6-.32-4.35-.91-5.24a2.54,2.54,0,0,0-2.15-1.34c-.71,0-1.55.62-2.51,1.87A10.46,10.46,0,0,0,348,250.3v6.85a9.41,9.41,0,0,0,.43,2.8,4.66,4.66,0,0,0,.92,1.87v.32H342a1.32,1.32,0,0,1-1.34-1.41v-23a4.69,4.69,0,0,0-.29-1.41,3.72,3.72,0,0,0-1-1.5,2.86,2.86,0,0,0-1.89-.69l9.33-3.77a1.22,1.22,0,0,1,1.18,1.31V246a8.29,8.29,0,0,1,8.13-5.17,7.47,7.47,0,0,1,4.3,1.63q2.25,1.62,2.25,5.94v8.75a9.4,9.4,0,0,0,.42,2.8,4.79,4.79,0,0,0,.92,1.87v.32Z"/><path class="cls-4" d="M376.94,262.72a10.95,10.95,0,0,1,0-21.89c3.21,0,5.45,1,6.73,2.89a5.43,5.43,0,0,1,1.06,2.94,3.2,3.2,0,0,1-.68,2l-10.61,2.85c1.4,3.23,3,5.37,4.78,6.43a9.23,9.23,0,0,0,4.19,1.59,5.3,5.3,0,0,0,2.7-.78c.07,0,.1.07.1.12a.38.38,0,0,1-.1.22A10.53,10.53,0,0,1,376.94,262.72Zm-3.72-11.81,3.7-1c.8-.64,1.2-1.81,1.2-3.52a8.79,8.79,0,0,0-.6-3.07,2.17,2.17,0,0,0-2.16-1.61q-3.36,0-3.36,3.66A14.65,14.65,0,0,0,373.22,250.91Z"/><path class="cls-4" d="M398.44,262.14h-7.32a1.35,1.35,0,0,1-.95-.37,1.24,1.24,0,0,1-.39-.94V248.24a4.65,4.65,0,0,0-.29-1.39,3.72,3.72,0,0,0-1-1.5,2.82,2.82,0,0,0-1.89-.69l9.31-3.74c.75,0,1.14.43,1.18,1.3v2q2.32-3.33,4.77-3.33a4.29,4.29,0,0,1,3.29,1.07,4,4,0,0,1,1,2.86,4.43,4.43,0,0,1-1.14,3.37,3.58,3.58,0,0,1-2.52,1.07,3.09,3.09,0,0,1-1.92-.65,2.71,2.71,0,0,1-.88-2.33q0-2.4-1.23-2.4a1.1,1.1,0,0,0-.95.69,12.78,12.78,0,0,0-.39,4v8.51a9.34,9.34,0,0,0,.42,2.79,4.81,4.81,0,0,0,.92,1.86Z"/></g></g><g id="coder-2" class="cls-2"><g class="cls-2"><path class="cls-4" d="M337.5,209.18a19.75,19.75,0,1,1,0-39.49,15.44,15.44,0,0,1,10.41,3.61q4.18,3.62,4.19,7.92a5,5,0,0,1-1.63,3.79,7,7,0,0,1-4.88,1.55q-4.29,0-6.14-2.2t-1.84-6.5q0-3.92-.87-5.32a2.57,2.57,0,0,0-2.31-1.4q-5.49,0-5.49,8.09a25.94,25.94,0,0,0,3.28,12.47,26.46,26.46,0,0,0,8,8.9q4.5,3,7.32,3a7.93,7.93,0,0,0,4.73-1.62l.29.18A19.44,19.44,0,0,1,337.5,209.18Z"/><path class="cls-4" d="M362.45,203.4a19.16,19.16,0,0,1,0-27.89,21.19,21.19,0,0,1,29.09,0,19.18,19.18,0,0,1,0,27.89,21.19,21.19,0,0,1-29.09,0Zm21.17,1.77c.71-1.25,1.1-3.41,1.18-6.46A44.34,44.34,0,0,0,382.67,186q-2.39-7.34-5.17-10.75c-1.86-2.28-3.43-3.42-4.73-3.42-.92,0-1.74.63-2.46,1.88s-1.11,3.42-1.16,6.51a44.36,44.36,0,0,0,2.13,12.68q2.39,7.34,5.17,10.75t4.73,3.41C382.1,207.05,382.91,206.43,383.62,205.17Z"/><path class="cls-4" d="M426.86,207a15.38,15.38,0,0,1-8,2.2,17.51,17.51,0,0,1-9.43-2.62,15.65,15.65,0,0,1-6.14-7.28,22,22,0,0,1-1.7-8.34,26.66,26.66,0,0,1,.87-6.62,19.72,19.72,0,0,1,8.64-12,16.89,16.89,0,0,1,8.92-2.6,19.26,19.26,0,0,1,6.87,1.16v-6.8a7.63,7.63,0,0,0-.55-2.58,6.75,6.75,0,0,0-1.78-2.66,5,5,0,0,0-3.38-1.22l16.83-6.8a2.19,2.19,0,0,1,2.14,2.35v46.25a3.93,3.93,0,0,0,.68,2.06,1.89,1.89,0,0,0,1.66,1,10.92,10.92,0,0,0,3.08-.58l.29.58L429,209.18C427.69,209.18,427,208.45,426.86,207Zm0-1.59V172.22a14.88,14.88,0,0,0-5.6-1.12q-5.53,0-6.58,5.09a25,25,0,0,0-.51,5.14,40.16,40.16,0,0,0,1.67,10.76q3.9,13.49,9.71,13.48A4.92,4.92,0,0,0,426.86,205.39Z"/><path class="cls-4" d="M468.41,209.18a19.75,19.75,0,1,1,0-39.49q8.67,0,12.14,5.2a9.8,9.8,0,0,1,1.91,5.32,5.82,5.82,0,0,1-1.22,3.54l-19.15,5.13q3.8,8.75,8.63,11.61t7.55,2.88a9.6,9.6,0,0,0,4.88-1.41q.18.07.18.21a.78.78,0,0,1-.18.4A19,19,0,0,1,468.41,209.18Zm-6.72-21.31,6.68-1.81q2.17-1.74,2.17-6.36a16,16,0,0,0-1.08-5.55,4,4,0,0,0-3.91-2.91q-6.06,0-6.07,6.62A26.23,26.23,0,0,0,461.69,187.87Z"/><path class="cls-4" d="M507.21,208.14H494a2.44,2.44,0,0,1-1.72-.67,2.23,2.23,0,0,1-.7-1.68V183.06a8.41,8.41,0,0,0-.52-2.51,6.58,6.58,0,0,0-1.77-2.71,5.09,5.09,0,0,0-3.42-1.25l16.8-6.76c1.35,0,2.06.79,2.13,2.35v3.69q4.2-6,8.6-6,4.2,0,6,1.92a7.33,7.33,0,0,1,1.75,5.16q0,4.16-2.06,6.09a6.5,6.5,0,0,1-4.55,1.93A5.72,5.72,0,0,1,511,183.8c-1.06-.78-1.59-2.19-1.59-4.21q0-4.34-2.21-4.34a2,2,0,0,0-1.71,1.25c-.45.83-.68,3.27-.71,7.32v15.35a17.11,17.11,0,0,0,.76,5.05,8.51,8.51,0,0,0,1.66,3.34Z"/></g></g><g id="programmer-2" class="cls-2"><g class="cls-2"><path class="cls-4" d="M122.89,34.85V12.47a1.7,1.7,0,0,0-.29-.91.85.85,0,0,0-.75-.48c-.07,0-.55.09-1.45.28l-.13-.28L128,8c.61,0,.93.34,1,1a7.12,7.12,0,0,1,3.7-1,7.53,7.53,0,0,1,5.83,2.27,8.77,8.77,0,0,1,2.09,6.16,10,10,0,0,1-2.49,6.9,7.83,7.83,0,0,1-6.06,2.8,8.72,8.72,0,0,1-3.07-.53v4.23a3.79,3.79,0,0,0,.24,1.17,3.12,3.12,0,0,0,.83,1.25,2.38,2.38,0,0,0,1.55.58l-7.72,3.11A1,1,0,0,1,122.89,34.85ZM134.6,23.13a12,12,0,0,0,.21-2.29,19.67,19.67,0,0,0-.74-5c-1.21-4.12-2.7-6.19-4.47-6.19a2.62,2.62,0,0,0-.61.08V25a6.45,6.45,0,0,0,2.6.51A2.74,2.74,0,0,0,134.6,23.13Z"/><path class="cls-4" d="M152,25.64h-6.07a1.12,1.12,0,0,1-.79-.31,1,1,0,0,1-.33-.77V14.11a3.79,3.79,0,0,0-.24-1.15,3,3,0,0,0-.81-1.24,2.36,2.36,0,0,0-1.57-.58L149.87,8c.62,0,.95.36,1,1.08v1.69q1.92-2.76,4-2.76a3.59,3.59,0,0,1,2.73.88,3.38,3.38,0,0,1,.81,2.38,3.7,3.7,0,0,1-1,2.8,3,3,0,0,1-2.09.88,2.59,2.59,0,0,1-1.59-.54,2.24,2.24,0,0,1-.74-1.93c0-1.33-.33-2-1-2a.91.91,0,0,0-.79.57,10.4,10.4,0,0,0-.32,3.36v7.06a7.74,7.74,0,0,0,.35,2.31,4,4,0,0,0,.76,1.54Z"/><path class="cls-4" d="M162.86,23.46a8.58,8.58,0,0,1-2.76-6.41,8.59,8.59,0,0,1,2.76-6.41,9.76,9.76,0,0,1,13.37,0A8.59,8.59,0,0,1,179,17.05a8.58,8.58,0,0,1-2.76,6.41,9.73,9.73,0,0,1-13.37,0Zm9.73.81a6.66,6.66,0,0,0,.54-3,20.53,20.53,0,0,0-1-5.84,15.76,15.76,0,0,0-2.37-4.94c-.86-1-1.58-1.57-2.18-1.57-.42,0-.8.29-1.13.86a6.68,6.68,0,0,0-.53,3,20.46,20.46,0,0,0,1,5.83,15.76,15.76,0,0,0,2.37,4.94c.86,1,1.58,1.57,2.18,1.57C171.89,25.14,172.26,24.85,172.59,24.27Z"/><path class="cls-4" d="M182.87,34.41A4.33,4.33,0,0,1,181,31a4.58,4.58,0,0,1,1.41-3.29,10.45,10.45,0,0,1,3.34-2.29h-4.39l-.21-.4,8.27-4.15a9.53,9.53,0,0,1-6-1.88,5.52,5.52,0,0,1,0-9.13A9.24,9.24,0,0,1,189.22,8a9.9,9.9,0,0,1,2.12.22,29.82,29.82,0,0,1,2.71-2.07A5.24,5.24,0,0,1,196.92,5c1.87,0,2.8.71,2.8,2a2.05,2.05,0,0,1-.06.49,1.82,1.82,0,0,1-.76,1.18,1.85,1.85,0,0,1-.85.3A1.93,1.93,0,0,1,197,8.62a4.9,4.9,0,0,0-2.78-.88,3.49,3.49,0,0,0-1.64.31l-.52.32q5.43,1.88,5.43,6.06a5.42,5.42,0,0,1-2,4.17,9.15,9.15,0,0,1-5,2.19L188,22.05h4.83q3.74,0,5.3,1.2a3.83,3.83,0,0,1,1.57,3.23,6.42,6.42,0,0,1-.63,2.63,12.5,12.5,0,0,1-3.73,4.71,10.91,10.91,0,0,1-6.84,2.11A9,9,0,0,1,182.87,34.41Zm12.21-1.17a2.64,2.64,0,0,0,.78-1.56,3.6,3.6,0,0,0-.12-.9,6.93,6.93,0,0,0-2.66-3.62,9.41,9.41,0,0,0-5.89-1.74c-1.25.17-1.88.61-1.88,1.33,0,1.19,1,2.78,3,4.75q2.7,2.66,5.1,2.65A2.18,2.18,0,0,0,195.08,33.24Zm-3.22-14.11a3.61,3.61,0,0,0,.35-1.7A11.23,11.23,0,0,0,191.14,13a9.18,9.18,0,0,0-2-3,2.79,2.79,0,0,0-1.6-.87,1.08,1.08,0,0,0-1,.65,3.56,3.56,0,0,0-.34,1.68,11.41,11.41,0,0,0,1.06,4.46,9.34,9.34,0,0,0,2,3,2.74,2.74,0,0,0,1.6.87A1.08,1.08,0,0,0,191.86,19.13Z"/><path class="cls-4" d="M210.63,25.64h-6.07a1.12,1.12,0,0,1-.79-.31,1,1,0,0,1-.33-.77V14.11A3.79,3.79,0,0,0,203.2,13a3,3,0,0,0-.81-1.24,2.36,2.36,0,0,0-1.57-.58L208.54,8c.62,0,1,.36,1,1.08v1.69q1.92-2.76,3.95-2.76a3.59,3.59,0,0,1,2.73.88,3.38,3.38,0,0,1,.81,2.38,3.7,3.7,0,0,1-.95,2.8A3,3,0,0,1,214,15a2.59,2.59,0,0,1-1.59-.54,2.24,2.24,0,0,1-.74-1.93c0-1.33-.33-2-1-2a.91.91,0,0,0-.79.57,10.4,10.4,0,0,0-.32,3.36v7.06a7.74,7.74,0,0,0,.35,2.31,4,4,0,0,0,.76,1.54Z"/><path class="cls-4" d="M222.49,26.1a3.5,3.5,0,0,1-1.83-.46,2.54,2.54,0,0,1-1.1-1.18,3.43,3.43,0,0,1-.33-1.4,4.28,4.28,0,0,1,1.45-2.71c1-1,3.48-2.46,7.52-4.34V13.13a14.51,14.51,0,0,0-.3-3.45,1.5,1.5,0,0,0-1.64-1.19,1.46,1.46,0,0,0-1.2.49,3,3,0,0,0-.41,1.83c0,.23,0,.46,0,.67s0,.42,0,.61a2.7,2.7,0,0,1-.77,2.3,3.57,3.57,0,0,1-2.13.55,2.52,2.52,0,0,1-1.56-.49,2,2,0,0,1-.67-1.65,3.56,3.56,0,0,1,.93-2,7.26,7.26,0,0,1,2.83-2,9.37,9.37,0,0,1,3.8-.84,8.36,8.36,0,0,1,5.14,1.49q2,1.48,2,5l0,7.29c0,1.32.6,2,1.72,2a3.34,3.34,0,0,0,1.71-.5l.2.35-5.09,2.17a3.57,3.57,0,0,1-1.47.32,3,3,0,0,1-1.65-.55,4,4,0,0,1-1.28-1.46A10.9,10.9,0,0,1,222.49,26.1ZM227.8,23h.41V16.54q-3.34,2-3.34,3.75a2.39,2.39,0,0,0,.89,2A3.23,3.23,0,0,0,227.8,23Z"/><path class="cls-4" d="M262.83,25.64a1.16,1.16,0,0,1-.8-.31,1,1,0,0,1-.33-.77V13.65c0-2.71-.48-4.07-1.45-4.07a3,3,0,0,0-2.13,1.22,4.19,4.19,0,0,0-1.1,2.72v8a7.65,7.65,0,0,0,.35,2.33,3.68,3.68,0,0,0,.78,1.54v.27H252a1.12,1.12,0,0,1-.79-.31,1,1,0,0,1-.33-.77V13.27a9.12,9.12,0,0,0-.3-2.82c-.21-.53-.51-.8-.92-.8a2.26,2.26,0,0,0-1.73.75,6.1,6.1,0,0,0-1.21,2.25,9.62,9.62,0,0,0-.52,3.17l0,5.86a5.63,5.63,0,0,0,1.08,3.69v.27h-6.1a1.14,1.14,0,0,1-.79-.31,1,1,0,0,1-.32-.77V14.08a3.79,3.79,0,0,0-.24-1.17,3.06,3.06,0,0,0-.82-1.24,2.38,2.38,0,0,0-1.56-.59L245.26,8a1,1,0,0,1,1,1.08v3Q247.64,8,252.3,8a5.32,5.32,0,0,1,2.79.79,4,4,0,0,1,1.79,2.43A6.65,6.65,0,0,1,263,8a5.86,5.86,0,0,1,3.24,1c1,.68,1.56,1.94,1.57,3.77l0,8.75a7.65,7.65,0,0,0,.35,2.33,3.82,3.82,0,0,0,.76,1.54v.27Z"/><path class="cls-4" d="M295.67,25.64a1.16,1.16,0,0,1-.8-.31,1,1,0,0,1-.33-.77V13.65c0-2.71-.49-4.07-1.45-4.07A3,3,0,0,0,291,10.8a4.19,4.19,0,0,0-1.1,2.72v8a8,8,0,0,0,.34,2.33,3.93,3.93,0,0,0,.78,1.54v.27h-6.1a1.1,1.1,0,0,1-.79-.31,1,1,0,0,1-.33-.77V13.27a9.12,9.12,0,0,0-.3-2.82c-.21-.53-.52-.8-.93-.8a2.25,2.25,0,0,0-1.72.75,6.1,6.1,0,0,0-1.21,2.25,9.62,9.62,0,0,0-.52,3.17l.05,5.86a5.51,5.51,0,0,0,1.08,3.69l0,.27H274.1a1.14,1.14,0,0,1-.79-.31,1,1,0,0,1-.32-.77V14.08a3.79,3.79,0,0,0-.24-1.17,3.06,3.06,0,0,0-.82-1.24,2.38,2.38,0,0,0-1.56-.59L278.1,8a1,1,0,0,1,1,1.08v3q1.4-4.1,6.06-4.1a5.37,5.37,0,0,1,2.79.79,4,4,0,0,1,1.79,2.43A6.65,6.65,0,0,1,295.81,8a5.89,5.89,0,0,1,3.25,1c1,.68,1.56,1.94,1.57,3.77l0,8.75a8,8,0,0,0,.34,2.33,3.94,3.94,0,0,0,.77,1.54v.27Z"/><path class="cls-4" d="M312.73,26.12a8.75,8.75,0,0,1-6.42-2.66,8.74,8.74,0,0,1-2.66-6.41,8.75,8.75,0,0,1,2.66-6.42A8.75,8.75,0,0,1,312.73,8q4,0,5.58,2.39a4.5,4.5,0,0,1,.88,2.44,2.63,2.63,0,0,1-.57,1.63l-8.79,2.36q1.74,4,4,5.33a7.66,7.66,0,0,0,3.47,1.32,4.45,4.45,0,0,0,2.25-.64.11.11,0,0,1,.08.1.42.42,0,0,1-.08.18A8.8,8.8,0,0,1,312.73,26.12Zm-3.09-9.8,3.07-.83a3.54,3.54,0,0,0,1-2.92,7.34,7.34,0,0,0-.5-2.55,1.8,1.8,0,0,0-1.79-1.33q-2.79,0-2.79,3A12.09,12.09,0,0,0,309.64,16.32Z"/><path class="cls-4" d="M330.56,25.64h-6.07a1.12,1.12,0,0,1-.79-.31,1,1,0,0,1-.33-.77V14.11a3.79,3.79,0,0,0-.24-1.15,3,3,0,0,0-.81-1.24,2.36,2.36,0,0,0-1.57-.58L328.47,8c.62,0,.95.36,1,1.08v1.69q1.92-2.76,3.95-2.76a3.6,3.6,0,0,1,2.73.88,3.38,3.38,0,0,1,.81,2.38,3.7,3.7,0,0,1-.95,2.8,3,3,0,0,1-2.09.88,2.64,2.64,0,0,1-1.6-.54,2.27,2.27,0,0,1-.73-1.93c0-1.33-.33-2-1-2a.91.91,0,0,0-.79.57,10.4,10.4,0,0,0-.32,3.36v7.06a7.74,7.74,0,0,0,.35,2.31,4,4,0,0,0,.76,1.54Z"/></g></g><g id="adventurer-2" class="cls-2"><g class="cls-2"><path class="cls-4" d="M347.07,53.59a3.38,3.38,0,0,1-1.77-.45A2.46,2.46,0,0,1,344.23,52a3.32,3.32,0,0,1-.32-1.35A4.13,4.13,0,0,1,345.32,48q1.41-1.47,7.29-4.21l0-2.79a14.38,14.38,0,0,0-.29-3.35,1.48,1.48,0,0,0-1.6-1.16,1.41,1.41,0,0,0-1.16.48,2.84,2.84,0,0,0-.4,1.78c0,.22,0,.44,0,.65s0,.4,0,.59a2.62,2.62,0,0,1-.75,2.23,3.49,3.49,0,0,1-2.07.54,2.45,2.45,0,0,1-1.51-.48,1.89,1.89,0,0,1-.65-1.6,3.48,3.48,0,0,1,.91-1.91,7,7,0,0,1,2.74-2,9.11,9.11,0,0,1,3.69-.81,8.13,8.13,0,0,1,5,1.44q1.94,1.44,1.95,4.86l0,7.08c0,1.27.59,1.91,1.68,1.91a3.26,3.26,0,0,0,1.66-.48l.19.34-4.95,2.11a3.43,3.43,0,0,1-1.41.3A2.79,2.79,0,0,1,354.1,53a3.73,3.73,0,0,1-1.24-1.42A10.55,10.55,0,0,1,347.07,53.59Zm5.16-3.05h.4l0-6.22c-2.16,1.27-3.23,2.49-3.23,3.64a2.27,2.27,0,0,0,.86,1.91A3.06,3.06,0,0,0,352.23,50.54Z"/><path class="cls-4" d="M373.58,52.62a6.82,6.82,0,0,1-3.58,1,7.86,7.86,0,0,1-4.21-1.17,7,7,0,0,1-2.74-3.24,9.8,9.8,0,0,1-.75-3.72,12.25,12.25,0,0,1,.38-2.95,8.8,8.8,0,0,1,3.86-5.37,7.55,7.55,0,0,1,4-1.16,8.47,8.47,0,0,1,3.06.52v-3a3.28,3.28,0,0,0-.25-1.15,3,3,0,0,0-.79-1.19,2.33,2.33,0,0,0-1.51-.55l7.51-3a1,1,0,0,1,.95,1.05V49.24a1.71,1.71,0,0,0,.31.92.85.85,0,0,0,.74.43,4.88,4.88,0,0,0,1.37-.26l.13.26-7.51,3C374,53.6,373.63,53.28,373.58,52.62Zm0-.71V37.12a6.71,6.71,0,0,0-2.5-.5,2.66,2.66,0,0,0-2.93,2.27,11.18,11.18,0,0,0-.23,2.29,18.07,18.07,0,0,0,.74,4.8q1.74,6,4.34,6A2.38,2.38,0,0,0,373.58,51.91Z"/><path class="cls-4" d="M391.75,53.54a.54.54,0,0,1-.34-.18,1,1,0,0,1-.25-.34L386,42.19c-1-2.13-2.58-3.2-4.59-3.2l7.49-3a.89.89,0,0,1,.58.14q.14.13,6.1,12.57A9.93,9.93,0,0,0,397,44.26a6.34,6.34,0,0,0-1-3.86,7,7,0,0,0-2.35-2.06L400,36a4.22,4.22,0,0,1,1.11,3,10,10,0,0,1-2.24,6.18l-6.35,8.3Z"/><path class="cls-4" d="M411.64,53.6a8.8,8.8,0,0,1-6.24-15A8.5,8.5,0,0,1,411.64,36c2.57,0,4.38.77,5.41,2.32a4.37,4.37,0,0,1,.85,2.37,2.58,2.58,0,0,1-.54,1.58l-8.54,2.29c1.12,2.6,2.41,4.32,3.85,5.18A7.44,7.44,0,0,0,416,51a4.26,4.26,0,0,0,2.17-.63.11.11,0,0,1,.08.1.36.36,0,0,1-.08.17A8.48,8.48,0,0,1,411.64,53.6Zm-3-9.5,3-.81a3.49,3.49,0,0,0,1-2.84A7,7,0,0,0,412.1,38a1.76,1.76,0,0,0-1.74-1.3c-1.8,0-2.7,1-2.7,3A11.6,11.6,0,0,0,408.64,44.1Z"/><path class="cls-4" d="M434.87,53.14a1.06,1.06,0,0,1-.76-.3,1,1,0,0,1-.32-.75V42.23c0-2.08-.22-3.37-.6-3.89a1.54,1.54,0,0,0-1.2-.79,1.57,1.57,0,0,0-.76.2,6.25,6.25,0,0,0-3.34,5.86V49.2a8.47,8.47,0,0,0,.37,2.24,3.65,3.65,0,0,0,.73,1.44v.26h-5.93a1.08,1.08,0,0,1-.77-.3,1,1,0,0,1-.31-.75V41.92a3.76,3.76,0,0,0-.23-1.13,2.92,2.92,0,0,0-.8-1.21,2.37,2.37,0,0,0-1.51-.58l7.5-3a1,1,0,0,1,.95,1v3.11A6.67,6.67,0,0,1,434.44,36a6,6,0,0,1,3.46,1.31c1.2.87,1.81,2.46,1.81,4.78v7a7.77,7.77,0,0,0,.33,2.26,3.81,3.81,0,0,0,.75,1.5v.26Z"/><path class="cls-4" d="M445.68,52.43a3.78,3.78,0,0,1-1-2.58V39h-2.74v-.54a14,14,0,0,0,4.71-3.18,15.06,15.06,0,0,0,3.35-4.4l.66.37v2.87A4.82,4.82,0,0,0,451.69,37a3.16,3.16,0,0,0,2.57,1.42h.38V39h-4V49.08c0,1.82.73,2.73,2.18,2.73a6,6,0,0,0,3.09-1.22v.55a15.15,15.15,0,0,1-2.68,1.67,9.17,9.17,0,0,1-4.07.79A4.41,4.41,0,0,1,445.68,52.43Z"/><path class="cls-4" d="M469.84,52.57v-3a6.25,6.25,0,0,1-6.29,4.09,5.92,5.92,0,0,1-3.44-1.3c-1.19-.86-1.79-2.46-1.79-4.78V42a3.52,3.52,0,0,0-.24-1.13,2.93,2.93,0,0,0-.79-1.2,2.27,2.27,0,0,0-1.52-.57l7.49-3a1,1,0,0,1,.95,1V47.82A5.8,5.8,0,0,0,465,51c.5.75,1,1.13,1.48,1.13a2.89,2.89,0,0,0,1.71-.83,6.57,6.57,0,0,0,1.69-3.21V42a3.52,3.52,0,0,0-.24-1.13,3.17,3.17,0,0,0-.8-1.2,2.27,2.27,0,0,0-1.51-.57l7.48-3a1,1,0,0,1,1,1V49.25a1.66,1.66,0,0,0,.3.9.85.85,0,0,0,.74.46c.06,0,.52-.09,1.37-.26l.12.26-7.47,3A1,1,0,0,1,469.84,52.57Z"/><path class="cls-4" d="M488.35,53.14h-5.9a1.06,1.06,0,0,1-.76-.3,1,1,0,0,1-.31-.75V42a3.58,3.58,0,0,0-.24-1.12,3.06,3.06,0,0,0-.79-1.21,2.28,2.28,0,0,0-1.52-.55l7.49-3c.6,0,.92.35.95,1v1.65q1.88-2.69,3.84-2.68a3.47,3.47,0,0,1,2.65.86,3.27,3.27,0,0,1,.78,2.3,3.59,3.59,0,0,1-.92,2.72,2.92,2.92,0,0,1-2,.86,2.57,2.57,0,0,1-1.55-.53,2.19,2.19,0,0,1-.71-1.87c0-1.29-.32-1.94-1-1.94a.88.88,0,0,0-.76.56,9.83,9.83,0,0,0-.32,3.26v6.85a7.44,7.44,0,0,0,.34,2.25,3.84,3.84,0,0,0,.74,1.49Z"/><path class="cls-4" d="M505.14,53.6a8.81,8.81,0,0,1-8.81-8.79A8.81,8.81,0,0,1,505.14,36c2.58,0,4.38.77,5.42,2.32a4.46,4.46,0,0,1,.85,2.37,2.53,2.53,0,0,1-.55,1.58l-8.54,2.29c1.13,2.6,2.41,4.32,3.85,5.18A7.44,7.44,0,0,0,509.54,51a4.3,4.3,0,0,0,2.18-.63.11.11,0,0,1,.08.1.36.36,0,0,1-.08.17A8.51,8.51,0,0,1,505.14,53.6Zm-3-9.5,3-.81a3.46,3.46,0,0,0,1-2.84,7.15,7.15,0,0,0-.48-2.47,1.76,1.76,0,0,0-1.74-1.3c-1.81,0-2.71,1-2.71,3A11.79,11.79,0,0,0,502.14,44.1Z"/><path class="cls-4" d="M522.45,53.14h-5.9a1.08,1.08,0,0,1-.77-.3,1,1,0,0,1-.31-.75V42a3.82,3.82,0,0,0-.23-1.12,3.06,3.06,0,0,0-.79-1.21,2.29,2.29,0,0,0-1.53-.55l7.5-3c.6,0,.92.35,1,1v1.65q1.86-2.69,3.83-2.68a3.45,3.45,0,0,1,2.65.86,3.27,3.27,0,0,1,.78,2.3,3.59,3.59,0,0,1-.91,2.72,2.94,2.94,0,0,1-2,.86,2.55,2.55,0,0,1-1.55-.53,2.19,2.19,0,0,1-.71-1.87c0-1.29-.33-1.94-1-1.94a.89.89,0,0,0-.77.56,10,10,0,0,0-.31,3.26v6.85a7.44,7.44,0,0,0,.34,2.25,3.7,3.7,0,0,0,.74,1.49Z"/></g></g></g></svg>