<svg id="Layer_1" data-name="Layer 1" xmlns="http://www.w3.org/2000/svg" viewBox="0 0 120 120"><defs><style>.cls-1{fill:#00005b;}.cls-2{fill:#99f;}</style></defs><g id="vlpa-2"><g id="vlpb-2"><g id="vlpc-2"><g id="vlpd-2"><path id="Path_16" data-name="Path 16" class="cls-1" d="M42.06,32.91H77.94a9.84,9.84,0,0,1,9.84,9.83h0v34.5A9.84,9.84,0,0,1,78,87.09H42.06a9.84,9.84,0,0,1-9.84-9.83h0V42.75A9.84,9.84,0,0,1,42,32.91Z"/></g></g></g><g id="vlpe-2"><g id="vlpf-2"><path id="Path_17" data-name="Path 17" class="cls-2" d="M54.54,65.33H45.93l-1.76,5.46a.4.4,0,0,1-.44.32H39.37c-.25,0-.32-.14-.25-.41l7.45-21.37c.07-.23.14-.44.24-.72a8.36,8.36,0,0,0,.13-1.5.25.25,0,0,1,.19-.26h6c.16,0,.28.07.3.19l8.45,23.61c.07.26,0,.37-.24.37H56.8a.35.35,0,0,1-.37-.25l-1.9-5.56Zm-7.27-4.61h5.88c-.14-.49-.33-1.07-.53-1.67s-.42-1.3-.63-2-.44-1.41-.67-2.13-.44-1.39-.62-2.06-.35-1.25-.51-1.81h0a28,28,0,0,1-.79,3c-.34,1.11-.69,2.27-1.06,3.43s-.67,2.27-1,3.24Z"/><path id="Path_18" data-name="Path 18" class="cls-2" d="M75.51,63.24H68.17a5.18,5.18,0,0,0,.72,2.06,3.65,3.65,0,0,0,1.69,1.39,7.2,7.2,0,0,0,3,.58A13.87,13.87,0,0,0,76,67,9.06,9.06,0,0,0,78,66.48c.12-.09.19,0,.19.19v3.54a1.37,1.37,0,0,1,0,.28.61.61,0,0,1-.16.16,9.86,9.86,0,0,1-2.32.7,15.68,15.68,0,0,1-3.28.27,10.92,10.92,0,0,1-4.45-.81A7.79,7.79,0,0,1,65,68.61a8.66,8.66,0,0,1-1.6-3,12,12,0,0,1,.1-7.06,9.51,9.51,0,0,1,1.73-3.17,8.32,8.32,0,0,1,2.8-2.2,8.72,8.72,0,0,1,3.87-.72,8.39,8.39,0,0,1,3.59.72A6.31,6.31,0,0,1,77.94,55a8.67,8.67,0,0,1,1.39,2.64,9.28,9.28,0,0,1,.44,2.82c0,.56,0,1,0,1.48l-.09,1a.35.35,0,0,1-.33.3l-.76,0a10,10,0,0,1-1.34.07c-.53,0-1.09-.09-1.69-.09Zm-7.34-3.38h4.89c.6,0,1,0,1.32,0a1.13,1.13,0,0,0,.53-.19v-.23a2.7,2.7,0,0,0-.14-.85,3.06,3.06,0,0,0-3-2.13,3.24,3.24,0,0,0-3.08,1.76,4.79,4.79,0,0,0-.51,1.66Z"/></g></g></g></svg>