<svg id="Layer_1" data-name="Layer 1" xmlns="http://www.w3.org/2000/svg" viewBox="0 0 120 120"><defs><style>.cls-1{fill:#300;}.cls-2{fill:#ff9a00;}</style></defs><g id="vlpa"><g id="vlpb"><g id="vlpc"><g id="vlpd"><path id="Path_13" data-name="Path 13" class="cls-1" d="M42.06,32.91H77.94a9.84,9.84,0,0,1,9.84,9.83h0v34.5A9.84,9.84,0,0,1,78,87.09H42.06a9.84,9.84,0,0,1-9.84-9.83h0V42.75A9.84,9.84,0,0,1,42,32.91Z"/></g></g></g><g id="vlpe"><g id="vlpf"><path id="Path_14" data-name="Path 14" class="cls-2" d="M59.07,65.32H50.46L48.7,70.76a.41.41,0,0,1-.44.33H43.91c-.25,0-.32-.14-.25-.42l7.45-21.46c.07-.23.14-.49.23-.76a7.62,7.62,0,0,0,.14-1.5.24.24,0,0,1,.19-.26h6c.18,0,.27.07.3.19l8.45,23.84c.07.26,0,.37-.23.37H61.34a.35.35,0,0,1-.37-.25l-1.9-5.51Zm-7.26-4.7h5.88c-.14-.48-.33-1.06-.54-1.66s-.41-1.3-.62-2-.44-1.42-.67-2.13-.44-1.39-.63-2.06-.34-1.25-.51-1.81h0a28,28,0,0,1-.79,3c-.35,1.11-.69,2.27-1.06,3.42s-.68,2.27-1,3.24Z"/><path id="Path_15" data-name="Path 15" class="cls-2" d="M71.58,50.74a2.83,2.83,0,0,1-2.06-.81,3,3,0,0,1-.79-2.13,2.72,2.72,0,0,1,.83-2.06,2.94,2.94,0,0,1,2.06-.81,2.77,2.77,0,0,1,2.11.81,3.19,3.19,0,0,1,0,4.19A2.71,2.71,0,0,1,71.58,50.74ZM69,70.83V53c0-.23.1-.33.3-.33h4.59c.2,0,.3.12.3.33V70.83c0,.26-.1.37-.3.37H69.33a.32.32,0,0,1-.35-.29Z"/></g></g></g></svg>