<svg id="Layer_1" data-name="Layer 1" xmlns="http://www.w3.org/2000/svg" viewBox="0 0 120 120"><defs><style>.cls-1{fill:#264de4;}.cls-2{fill:#2965f1;}.cls-3{fill:#ebebeb;}.cls-4{fill:#fff;}</style></defs><g id="layer1"><g id="g3013"><path id="polygon2989" class="cls-1" d="M82.06,41.1l-4,45L60,91.14l-18-5-4-45Z"/><path id="polygon2991" class="cls-2" d="M74.6,83.27,78,44.78H60V87.31Z"/><path id="polygon2993" class="cls-3" d="M47.14,61.49l.5,5.52H60V61.49Z"/><path id="polygon2995" class="cls-3" d="M60,50.3H46.15l.5,5.52H60Z"/><path id="polygon2997" class="cls-3" d="M60,81.58V75.83h0l-6.16-1.66-.39-4.41H47.88l.78,8.68L60,81.59Z"/><path id="path2999" d="M48.32,28.86H55v2.8H51.12v2.8H55v2.8H48.32Z"/><path id="path3001" d="M56.35,28.86H63v2.43H59.15v.49H63v5.6H56.35V34.82h3.89v-.49H56.35Z"/><path id="path3003" d="M64.38,28.86h6.69v2.43H67.18v.49h3.89v5.6H64.38V34.82h3.89v-.49H64.38Z"/><path id="polygon3005" class="cls-4" d="M66.78,67l-.64,7.17L60,75.84v5.75L71.3,78.45l.09-.94L72.69,63l.13-1.48,1-11.18H60v5.52h7.79l-.5,5.66H60V67Z"/></g></g></svg>