<svg id="Layer_1" data-name="Layer 1" xmlns="http://www.w3.org/2000/svg" viewBox="0 0 120 120"><defs><style>.cls-1{fill:#f26522;}.cls-2{fill:#fff;}</style></defs><g id="es6-seeklogo.com"><rect id="Rectangle_49" data-name="Rectangle 49" class="cls-1" x="34.5" y="34.5" width="51" height="51"/><path id="Path_6" data-name="Path 6" class="cls-2" d="M55.45,66.26h7.78V64.14H57.86V60.87h5V58.75h-5V55.68h5.37V53.57H55.45Zm18.16-3.45c0-2.53-.17-3.09-3.58-3.91-2.19-.53-2.23-.57-2.23-2,0-1.11.29-1.45,1.91-1.45a16.77,16.77,0,0,1,3.39.38l.27-2a17.79,17.79,0,0,0-3.7-.42c-3.22,0-4.27,1.14-4.27,3.45,0,2.68.42,3.28,3.49,4,2.28.5,2.32.61,2.32,2,0,1.22-.28,1.58-2,1.58a11.78,11.78,0,0,1-3.58-.59l-.42,1.89a10.76,10.76,0,0,0,4,.76C72.91,66.45,73.61,65.21,73.61,62.81ZM78,58.08c0-1.94.93-2.32,3.18-2.32a10.74,10.74,0,0,1,1.79.17L83.16,54A10.71,10.71,0,0,0,81,53.76c-3.47,0-5.26,1.07-5.26,4.42v4.63c0,2.19.65,3.64,3.93,3.64,3,0,3.9-1.49,3.9-3.47v-.91c0-2.2-.93-3.15-3.24-3.15a7.31,7.31,0,0,0-2.27.34V58.08Zm1.9,2.84c.84,0,1.28.29,1.28,1.2v.94c0,1-.38,1.39-1.58,1.39S78,64.11,78,63.06V61.32a5.17,5.17,0,0,1,1.9-.4Z"/></g></svg>