<svg id="Layer_1" data-name="Layer 1" xmlns="http://www.w3.org/2000/svg" viewBox="0 0 120 120"><defs><style>.cls-1{fill:#0acf83;}.cls-2{fill:#a259ff;}.cls-3{fill:#f24e1e;}.cls-4{fill:#ff7262;}.cls-5{fill:#1abcfe;}</style></defs><g id="Figma-logo"><path id="path0_fill" data-name="path0 fill" class="cls-1" d="M51,87a9,9,0,0,0,9-9V69H51a9,9,0,1,0,0,18Z"/><path id="path1_fill" data-name="path1 fill" class="cls-2" d="M42,60a9,9,0,0,1,9-9h9V69H51A9,9,0,0,1,42,60Z"/><path id="path1_fill-2" data-name="path1 fill" class="cls-3" d="M42,42a9,9,0,0,1,9-9h9V51H51A9,9,0,0,1,42,42Z"/><path id="path2_fill" data-name="path2 fill" class="cls-4" d="M60,33h9a9,9,0,1,1,0,18H60Z"/><path id="path3_fill" data-name="path3 fill" class="cls-5" d="M78,60a9,9,0,1,1-9-9A9,9,0,0,1,78,60Z"/></g></svg>