<svg id="Layer_1" data-name="Layer 1" xmlns="http://www.w3.org/2000/svg" viewBox="0 0 120 120"><defs><style>.cls-1{fill:#f03c2e;}</style></defs><path id="git-scm-icon" class="cls-1" d="M86.07,57.6,62.41,33.94a3.47,3.47,0,0,0-4.93,0h0l-4.91,4.91,6.23,6.23a4.14,4.14,0,0,1,5.25,5.28l6,6a4.15,4.15,0,1,1-2.49,2.34L62,53.11V67.85a4.45,4.45,0,0,1,1.1.79,4.15,4.15,0,1,1-5.88,0h0a4,4,0,0,1,1.36-.91V52.85a4.15,4.15,0,0,1-2.26-5.42v0l-6.15-6.15L33.93,57.47a3.48,3.48,0,0,0,0,4.93h0L57.59,86.06a3.47,3.47,0,0,0,4.93,0h0L86.07,62.55a3.48,3.48,0,0,0,0-4.93h0"/></svg>