<svg id="Layer_1" data-name="Layer 1" xmlns="http://www.w3.org/2000/svg" viewBox="0 0 120 120"><defs><style>.cls-1{fill:#e44d26;}.cls-2{fill:#f16529;}.cls-3{fill:#ebebeb;}.cls-4{fill:#fff;}</style></defs><g id="HTML5_logo_and_wordmark" data-name="HTML5 logo and wordmark"><path id="Path_1" data-name="Path 1" d="M42,28.86h2.8v2.77h2.58V28.86h2.8v8.39h-2.8V34.46H44.87v2.8H42m11.88-5.6H51.44v-2.8h7.75v2.8H56.71v5.6h-2.8m6.52-8.4h2.93l1.8,2.95L67,28.86h2.93v8.39h-2.8V33.09l-2,3-2-3v4.16H60.42m10.86-8.39h2.8v5.62h4v2.77H71.28"/><path id="Path_2" data-name="Path 2" class="cls-1" d="M42,86.16l-4-45.07H82.07l-4,45L60,91.14"/><path id="Path_3" data-name="Path 3" class="cls-2" d="M60,87.31V44.79H78L74.6,83.24"/><path id="Path_4" data-name="Path 4" class="cls-3" d="M46.13,50.3H60v5.53H52.19l.51,5.65H60V67H47.64m.24,2.78h5.55l.39,4.41L60,75.84V81.6L48.66,78.44"/><path id="Path_5" data-name="Path 5" class="cls-4" d="M73.82,50.3H60v5.53H73.31m-.5,5.65H60V67h6.81l-.65,7.18L60,75.84v5.74l11.31-3.14"/></g></svg>