<svg id="Layer_1" data-name="Layer 1" xmlns="http://www.w3.org/2000/svg" viewBox="0 0 120 120"><defs><style>.cls-1{fill:#214674;}</style></defs><path id="lesscss-ar21" class="cls-1" d="M28.67,64c0-1.17-.75-2.42-2.92-2.5V58.55c2.16-.09,2.92-1.34,2.92-2.5,0-2.09-.33-3.42-.33-5.84,0-3.67,1.33-4.84,4.34-4.84h8V48H34.18c-1.42,0-1.84.5-1.84,2.33l.17,5.51c0,2.59-.83,3.59-2.5,4V60c1.67.42,2.5,1.42,2.5,4l-.17,5.51c0,1.83.42,2.42,1.84,2.42h.67v2.58H32.69c-3,0-4.34-1.17-4.34-4.84,0-2.42.33-3.67.33-5.75Zm7.1-18.36h5V64.38c0,1.09.5,1.42.92,1.42a1.68,1.68,0,0,0,.59-.08l.58,3.67a6.68,6.68,0,0,1-2.5.42c-3.42,0-4.59-2.26-4.59-5.68Zm14.1,6.51c4.75,0,7.17,3.5,7.17,8.09a11.27,11.27,0,0,1-.17,2.09H46.62A4.07,4.07,0,0,0,51,66a6.94,6.94,0,0,0,3.67-1.09l1.67,3a11.33,11.33,0,0,1-6,1.93c-4.84,0-8.51-3.26-8.51-8.85-.09-5.42,3.92-8.84,8-8.84Zm2.92,7.09c0-1.92-.84-3.34-2.84-3.34-1.59,0-2.92,1.09-3.25,3.34Zm7.09,5.17a7.11,7.11,0,0,0,4.34,1.76c1.5,0,2.16-.59,2.16-1.42,0-1.09-1.67-1.67-3.42-2.34-2-.75-4.42-2.16-4.42-4.92,0-3.09,2.58-5.26,6.42-5.26a9.65,9.65,0,0,1,5.93,2.16l-2.26,3A5.89,5.89,0,0,0,65.05,56c-1.26,0-1.92.5-1.92,1.33,0,1.09,1.58,1.5,3.33,2.16,2.17.75,4.59,2,4.59,5.09S68.63,70,64.13,70a10.68,10.68,0,0,1-6.43-2.33Zm13.6,0a7.11,7.11,0,0,0,4.34,1.76c1.5,0,2.16-.59,2.16-1.42,0-1.09-1.67-1.67-3.42-2.34-2-.75-4.42-2.16-4.42-4.92,0-3.09,2.58-5.26,6.42-5.26a9.65,9.65,0,0,1,5.93,2.16l-2.26,3A5.89,5.89,0,0,0,78.65,56c-1.26,0-1.92.5-1.92,1.33,0,1.09,1.58,1.5,3.25,2.16,2.16.75,4.59,2,4.59,5.09S82.15,70,77.64,70a10.67,10.67,0,0,1-6.42-2.33Zm12.35,7.51c1.42,0,1.83-.5,1.83-2.42S87.5,66,87.5,64c0-2.59.83-3.59,2.5-4v-.17c-1.67-.41-2.5-1.41-2.5-4,0-2,.16-3.76.16-5.51s-.33-2.34-1.83-2.34h-.67V45.36h2.16c3,0,4.34,1.17,4.34,4.84,0,2.33-.33,3.67-.33,5.84,0,1.17.75,2.42,2.92,2.5v2.92c-2.16.08-2.92,1.34-2.92,2.5,0,2.16.33,3.42.33,5.84,0,3.67-1.33,4.84-4.34,4.84H85.16V72Z"/></svg>