<svg id="Layer_1" data-name="Layer 1" xmlns="http://www.w3.org/2000/svg" viewBox="0 0 120 120"><defs><style>.cls-1{fill:#001e36;}.cls-2{fill:#31a8ff;}</style></defs><g id="Layer_2_1_2" data-name="Layer 2 1 2"><g id="Surfaces-2"><g id="Photo_Surface" data-name="Photo Surface"><g id="Outline_no_shadow-2" data-name="Outline no shadow-2"><path id="Path_19" data-name="Path 19" class="cls-1" d="M41.92,32.71H78.08A9.89,9.89,0,0,1,88,42.6V77.38a9.89,9.89,0,0,1-9.89,9.91H41.92A9.89,9.89,0,0,1,32,77.4V42.62a9.89,9.89,0,0,1,9.89-9.91Z"/></g></g></g><g id="Outlined_Mnemonics_Logos-2" data-name="Outlined Mnemonics Logos-2"><g id="Ps"><path id="Path_20" data-name="Path 20" class="cls-2" d="M44.6,71V47c0-.17.07-.26.24-.26.4,0,.77,0,1.3,0s1.15,0,1.78-.05,1.3,0,2,0,1.43,0,2.13,0a13.72,13.72,0,0,1,4.8.72A8.27,8.27,0,0,1,60,49.22a7.25,7.25,0,0,1,1.7,2.67,8.72,8.72,0,0,1,.54,3,8.36,8.36,0,0,1-1.4,5,8.08,8.08,0,0,1-3.75,2.85,15.11,15.11,0,0,1-5.25.79c-.56,0-.94,0-1.17,0a9,9,0,0,0-1,0V71a.3.3,0,0,1-.25.33H44.88A.27.27,0,0,1,44.6,71Zm5.09-19.76v7.84c.33,0,.63,0,.91,0h1.23a8.45,8.45,0,0,0,2.69-.42,3.91,3.91,0,0,0,1.91-1.23,3.58,3.58,0,0,0,.72-2.4A3.8,3.8,0,0,0,56.62,53,3.41,3.41,0,0,0,55,51.65a6.78,6.78,0,0,0-2.75-.46c-.61,0-1.14,0-1.59,0a5,5,0,0,0-1,0Z"/><path id="Path_21" data-name="Path 21" class="cls-2" d="M76.8,57.64a8.54,8.54,0,0,0-2.24-.79,12.83,12.83,0,0,0-2.62-.3,4.75,4.75,0,0,0-1.4.16,1.21,1.21,0,0,0-.72.47,1.29,1.29,0,0,0-.19.63,1.05,1.05,0,0,0,.24.61,2.68,2.68,0,0,0,.79.63c.54.28,1.1.54,1.66.77a16.61,16.61,0,0,1,3.59,1.7,5.49,5.49,0,0,1,1.84,1.93,5,5,0,0,1,.54,2.4,5.39,5.39,0,0,1-.91,3.1A5.76,5.76,0,0,1,74.76,71a10.66,10.66,0,0,1-4.22.75,16.93,16.93,0,0,1-3.17-.3A10,10,0,0,1,65,70.73a.46.46,0,0,1-.26-.44V66.23a.25.25,0,0,1,.1-.21A.18.18,0,0,1,65,66a10,10,0,0,0,2.89,1.15,10.63,10.63,0,0,0,2.75.34,4.43,4.43,0,0,0,1.94-.32,1.09,1.09,0,0,0,.63-1,1.25,1.25,0,0,0-.56-.94,10.07,10.07,0,0,0-2.29-1.1,13.94,13.94,0,0,1-3.31-1.68,5.9,5.9,0,0,1-1.77-2,4.89,4.89,0,0,1-.54-2.38,5.5,5.5,0,0,1,.79-2.82A5.85,5.85,0,0,1,68,53.18a9.06,9.06,0,0,1,4.13-.81,19.86,19.86,0,0,1,2.89.21,7.76,7.76,0,0,1,2,.54.38.38,0,0,1,.23.2,1,1,0,0,1,0,.28v3.81a.28.28,0,0,1-.12.23A.58.58,0,0,1,76.8,57.64Z"/></g></g></g></svg>