<svg id="Layer_1" data-name="Layer 1" xmlns="http://www.w3.org/2000/svg" viewBox="0 0 120 120"><defs><style>.cls-1{fill:#61dafb;}</style></defs><g id="React-icon"><path id="Path_7" data-name="Path 7" class="cls-1" d="M90.58,65.32c0-4-5-7.85-12.78-10.22,1.78-7.88,1-14.16-2.5-16.17a5.52,5.52,0,0,0-2.78-.69V41a2.87,2.87,0,0,1,1.41.33c1.69,1,2.42,4.65,1.85,9.38-.14,1.17-.36,2.4-.63,3.65A58.45,58.45,0,0,0,67.27,53a61.12,61.12,0,0,0-5.15-6.2C66.16,43.05,70,41,72.53,41V38.23h0c-3.41,0-7.87,2.43-12.39,6.64-4.51-4.19-9-6.6-12.38-6.6V41c2.56,0,6.37,2,10.41,5.78A57.21,57.21,0,0,0,53.05,53a58.62,58.62,0,0,0-7.89,1.36,36,36,0,0,1-.64-3.6c-.59-4.74.13-8.42,1.81-9.4a2.8,2.8,0,0,1,1.42-.32V38.29h0A5.59,5.59,0,0,0,45,39c-3.48,2-4.26,8.27-2.46,16.13-7.72,2.39-12.74,6.19-12.74,10.2s5,7.85,12.79,10.22c-1.79,7.89-1,14.16,2.5,16.17a5.33,5.33,0,0,0,2.79.69c3.41,0,7.87-2.43,12.38-6.64,4.52,4.19,9,6.6,12.39,6.6a5.5,5.5,0,0,0,2.8-.7c3.48-2,4.27-8.27,2.47-16.13C85.56,73.16,90.58,69.34,90.58,65.32ZM74.44,57.05c-.46,1.6-1,3.25-1.68,4.9-.51-1-1-2-1.62-3s-1.18-2-1.79-2.9c1.76.26,3.46.58,5.09,1Zm-5.68,13.2c-1,1.68-2,3.27-3,4.74-1.85.16-3.72.25-5.6.25s-3.75-.09-5.58-.24q-1.55-2.2-3-4.71c-.94-1.62-1.8-3.27-2.58-4.93.77-1.67,1.64-3.33,2.57-5s2-3.26,3-4.74c1.85-.16,3.72-.25,5.6-.25s3.75.09,5.58.24q1.55,2.22,3,4.71c1,1.63,1.81,3.27,2.58,4.94-.78,1.66-1.63,3.32-2.56,4.94Zm4-1.61C73.43,70.3,74,72,74.47,73.58c-1.63.4-3.34.73-5.11,1,.61-1,1.21-1.93,1.78-2.94s1.11-2,1.62-3ZM60.18,81.87a50.19,50.19,0,0,1-3.44-4c1.11,0,2.25.09,3.41.09s2.32,0,3.44-.09a47.74,47.74,0,0,1-3.4,4ZM51,74.57c-1.76-.26-3.46-.58-5.09-1,.46-1.6,1-3.25,1.68-4.9.51,1,1,2,1.62,3s1.19,2,1.79,2.9Zm9.16-25.8a51.89,51.89,0,0,1,3.45,4c-1.12-.05-2.26-.09-3.41-.09s-2.32,0-3.45.09a49.67,49.67,0,0,1,3.42-4ZM51,56.07C50.34,57,49.73,58,49.16,59s-1.1,2-1.61,3c-.67-1.66-1.24-3.33-1.71-4.94,1.63-.38,3.34-.72,5.11-1ZM39.73,71.6c-4.39-1.88-7.23-4.33-7.23-6.28s2.84-4.41,7.23-6.27a36.09,36.09,0,0,1,3.43-1.25A60,60,0,0,0,46,65.35a57.71,57.71,0,0,0-2.75,7.51c-1.23-.39-2.39-.81-3.47-1.27ZM46.4,89.32c-1.69-1-2.42-4.65-1.85-9.39.14-1.17.36-2.39.63-3.65a59.8,59.8,0,0,0,7.88,1.36,59.83,59.83,0,0,0,5.15,6.2c-4,3.75-7.83,5.81-10.41,5.81a2.84,2.84,0,0,1-1.4-.34Zm29.41-9.45c.58,4.73-.14,8.42-1.81,9.4a2.83,2.83,0,0,1-1.43.32c-2.57,0-6.37-2-10.41-5.78a59.65,59.65,0,0,0,5.12-6.19,56.94,56.94,0,0,0,7.88-1.36,34,34,0,0,1,.65,3.6Zm4.77-8.27a36.09,36.09,0,0,1-3.43,1.25,59.4,59.4,0,0,0-2.79-7.55,60.34,60.34,0,0,0,2.75-7.52c1.23.39,2.39.81,3.48,1.27,4.39,1.87,7.23,4.33,7.23,6.27S85,69.73,80.59,71.59Z"/><circle id="Ellipse_1" data-name="Ellipse 1" class="cls-1" cx="60.15" cy="65.32" r="5.67"/></g></svg>