<svg id="Layer_1" data-name="Layer 1" xmlns="http://www.w3.org/2000/svg" viewBox="0 0 120 120"><defs><style>.cls-1{fill:#cd6799;}</style></defs><path id="Sass_Logo_Color" data-name="Sass Logo Color" class="cls-1" d="M84.73,63.84a14.17,14.17,0,0,0-6.2,1.44,13,13,0,0,1-1.39-3.22,8.72,8.72,0,0,1-.13-2.7,24.67,24.67,0,0,1,.82-2.91c0-.13-.15-.71-1.53-.73s-2.56.27-2.7.63a14.35,14.35,0,0,0-.57,2c-.24,1.25-2.76,5.72-4.2,8.06a7.79,7.79,0,0,1-1.07-5.06,24.62,24.62,0,0,1,.81-2.91c0-.13-.15-.71-1.52-.73s-2.57.27-2.7.63-.29,1.21-.58,2-3.63,8.28-4.5,10.21c-.45,1-.84,1.78-1.11,2.31h0a.93.93,0,0,1,0,.1c-.24.47-.38.72-.38.72h0c-.19.34-.39.65-.49.65a4.27,4.27,0,0,1,0-2.13c.5-2.59,1.69-6.62,1.67-6.75s.23-.78-.77-1.14a1.25,1.25,0,0,0-1.42.24c-.08,0-.15.21-.15.21s1.09-4.53-2.07-4.53c-2,0-4.7,2.17-6.06,4.12L43.87,67l-2.21,1.22L41.51,68C37.68,63.91,30.6,61,30.9,55.53c.11-2,.8-7.26,13.6-13.64C55,36.7,63.41,38.14,64.87,41.33c2.06,4.55-4.51,13-15.39,14.23-4.16.47-6.33-1.14-6.88-1.74s-.67-.66-.88-.53-.13.75,0,1.07a6.44,6.44,0,0,0,3.93,3.09c2,.65,6.87,1,12.76-1.26C65,53.64,70.16,46.54,68.64,40.6s-11.52-8-21-4.66c-5.63,2-11.74,5.16-16.13,9.26-5.22,4.88-6,9.12-5.7,10.9C27,62.41,35.73,66.51,39.2,69.55l-.47.26c-1.74.87-8.37,4.33-10,8-1.88,4.15.3,7.13,1.74,7.53,4.46,1.24,9.05-1,11.52-4.67S44.13,72.22,43,70a.14.14,0,0,0-.05-.08l1.37-.8c.89-.52,1.76-1,2.51-1.41a16.45,16.45,0,0,0-.88,4.55c-.19,2.35.77,5.41,2,6.61a2.33,2.33,0,0,0,1.66.54c1.47,0,2.14-1.23,2.87-2.68.9-1.78,1.72-3.84,1.72-3.84s-1,5.58,1.74,5.58c1,0,2-1.3,2.46-2h0l.08-.12.16-.27v0c.4-.7,1.3-2.29,2.64-4.93,1.73-3.4,3.39-7.66,3.39-7.66a21.88,21.88,0,0,0,.66,2.77,26.22,26.22,0,0,0,1.43,3.2c-.4.57-.65.88-.65.88h0c-.33.43-.68.89-1.07,1.34a40.22,40.22,0,0,0-3.21,4,1.1,1.1,0,0,0,.3,1.48,2.7,2.7,0,0,0,1.68.27A7.77,7.77,0,0,0,66.35,77a9,9,0,0,0,2.17-1.14,4.87,4.87,0,0,0,2.08-4.27,8.77,8.77,0,0,0-.79-3l.36-.53a55.65,55.65,0,0,0,3.75-6.48,23.78,23.78,0,0,0,.67,2.77A18.21,18.21,0,0,0,75.8,67a11.83,11.83,0,0,0-3.65,4.72c-.79,2.28-.18,3.3,1,3.54A3.48,3.48,0,0,0,75,74.92a8.23,8.23,0,0,0,2.32-1.19c1.34-1,2.62-2.36,2.55-4.23a8,8,0,0,0-.58-2.5,13.11,13.11,0,0,1,6.65-.76c5.95.7,7.13,4.42,6.9,6a4,4,0,0,1-1.89,2.68c-.41.26-.55.35-.51.54s.25.26.6.21a4.66,4.66,0,0,0,3.24-4.14C94.43,67.83,90.93,63.81,84.73,63.84ZM38.79,79.34c-2,2.15-4.73,3-5.91,2.27s-.78-3.91,1.65-6.19A31.32,31.32,0,0,1,39.17,72l1.23-.73.13-.08h0l.3-.19A8.53,8.53,0,0,1,38.79,79.34Zm14.39-9.79c-.69,1.68-2.13,6-3,5.73S49,71.83,50,68.61a14.92,14.92,0,0,1,2.34-4.29c1.07-1.2,2.26-1.6,2.55-1.11S53.6,68.5,53.18,69.55Zm11.87,5.68c-.29.15-.56.25-.69.18s.13-.25.13-.25,1.49-1.6,2.07-2.33c.34-.43.74-.93,1.17-1.49v.16c0,1.92-1.85,3.21-2.68,3.73Zm9.16-2.09c-.21-.15-.17-.65.54-2.21a8.32,8.32,0,0,1,2-2.63,3.48,3.48,0,0,1,.2,1.15A3.78,3.78,0,0,1,74.21,73.14Z"/></svg>